<?xml version="1.0" standalone="no"?>
<!DOCTYPE svg PUBLIC "-//W3C//DTD SVG 20010904//EN"
 "http://www.w3.org/TR/2001/REC-SVG-20010904/DTD/svg10.dtd">
<svg version="1.0" xmlns="http://www.w3.org/2000/svg"
 width="5000.000000pt" height="5000.000000pt" viewBox="0 0 5000.000000 5000.000000"
 preserveAspectRatio="xMidYMid meet">

<g transform="translate(0.000000,5000.000000) scale(0.100000,-0.100000)"
fill="#000000" stroke="none">
<path d="M0 25000 l0 -25000 25000 0 25000 0 0 25000 0 25000 -25000 0 -25000
0 0 -25000z m25618 21377 c139 -48 221 -175 210 -326 -6 -74 -21 -110 -84
-194 -43 -58 -44 -61 -44 -136 0 -52 5 -83 15 -97 8 -10 15 -27 15 -36 0 -9 6
-29 14 -45 34 -69 66 -156 73 -195 3 -15 11 -33 19 -39 8 -6 14 -24 14 -38 0
-15 7 -36 15 -47 8 -10 15 -31 15 -45 0 -14 7 -34 15 -45 8 -10 15 -30 15 -44
0 -14 6 -34 14 -45 7 -11 17 -36 21 -55 4 -19 11 -39 15 -45 4 -5 11 -25 15
-43 4 -18 13 -45 21 -60 8 -15 14 -37 14 -49 0 -12 4 -24 9 -27 5 -4 12 -24
16 -46 4 -22 11 -42 16 -46 5 -3 9 -18 9 -34 0 -16 4 -31 9 -35 6 -3 22 -45
36 -93 15 -48 31 -97 36 -110 5 -13 9 -46 9 -75 0 -32 6 -62 16 -75 9 -13 18
-51 21 -85 3 -34 11 -81 19 -105 8 -24 14 -83 14 -136 0 -51 5 -118 11 -147 7
-30 14 -211 18 -409 4 -195 9 -348 12 -340 4 8 12 44 18 79 7 35 16 71 21 80
9 16 34 99 64 206 10 33 24 72 32 87 8 14 14 41 14 60 0 18 7 42 15 52 9 12
15 43 15 80 1 34 7 72 15 86 8 14 14 42 15 62 0 20 4 39 9 42 8 6 29 46 65
131 7 17 40 86 74 155 33 69 63 132 66 140 3 8 10 22 15 30 5 8 12 22 15 30 3
8 10 23 16 33 5 9 15 25 20 35 6 9 13 24 16 32 14 38 39 87 55 105 9 11 43 58
75 105 122 178 159 233 169 249 6 9 22 32 38 52 15 20 27 40 27 44 0 4 15 25
33 48 30 38 52 82 87 177 17 45 15 105 -6 180 -60 215 89 420 307 421 90 0
150 -20 221 -76 94 -74 139 -191 117 -308 -14 -81 -29 -108 -112 -199 -66 -73
-96 -127 -96 -173 0 -11 -3 -75 -7 -142 -5 -85 -3 -136 6 -170 7 -26 17 -160
22 -298 11 -310 11 -261 1 -745 -6 -293 -11 -411 -20 -427 -8 -13 -13 -57 -13
-105 0 -46 -7 -110 -15 -141 -8 -32 -15 -79 -15 -105 1 -44 2 -46 16 -27 8 11
48 65 90 120 41 55 90 120 107 144 18 25 57 72 87 106 107 120 247 300 254
327 7 30 54 78 141 144 33 25 94 72 135 105 41 33 107 83 145 113 99 76 292
288 312 344 4 9 11 20 17 24 7 4 11 45 11 100 0 114 23 170 93 223 154 118
366 28 389 -165 14 -119 -82 -236 -218 -264 -33 -7 -233 -207 -249 -249 -7
-18 -16 -41 -21 -52 -4 -11 -12 -36 -18 -55 -8 -31 -16 -54 -41 -125 -4 -11
-15 -47 -25 -80 -36 -122 -77 -251 -91 -283 -8 -18 -14 -40 -14 -50 0 -9 -7
-30 -15 -46 -8 -15 -15 -38 -15 -50 0 -12 -7 -31 -15 -42 -8 -10 -15 -30 -15
-44 0 -14 -7 -38 -16 -55 -9 -16 -20 -46 -25 -65 -16 -69 -32 -126 -44 -155
-14 -33 -12 -27 -86 -320 -6 -22 -14 -65 -18 -95 -5 -30 -16 -72 -24 -93 -9
-21 -14 -44 -11 -52 3 -7 -4 -40 -15 -73 -12 -32 -21 -69 -21 -83 0 -13 -7
-46 -15 -73 -8 -27 -15 -64 -15 -83 0 -19 -7 -48 -16 -65 -10 -20 -14 -42 -10
-64 4 -20 1 -47 -9 -70 -8 -20 -15 -66 -15 -104 0 -51 -4 -69 -15 -74 -12 -4
-15 -29 -15 -136 0 -95 -3 -132 -12 -135 -9 -4 -13 -31 -14 -85 0 -52 -6 -85
-15 -96 -9 -11 -14 -45 -15 -98 -2 -90 -21 -388 -30 -452 l-6 -41 59 -7 c32
-4 81 -9 108 -12 140 -15 311 -41 430 -65 55 -12 129 -27 165 -34 119 -25 438
-116 505 -145 11 -5 47 -18 80 -29 54 -18 101 -35 160 -60 11 -5 49 -21 85
-36 87 -37 409 -194 440 -215 14 -9 50 -30 80 -47 76 -41 187 -111 231 -145
20 -15 40 -28 44 -28 3 0 26 -15 50 -32 23 -18 56 -42 71 -53 16 -11 45 -35
65 -52 20 -18 39 -33 43 -33 9 0 39 -25 237 -200 114 -100 219 -202 219 -213
0 -5 54 -66 120 -135 66 -70 120 -133 120 -139 0 -7 4 -13 9 -13 5 0 18 -15
30 -32 11 -18 41 -60 66 -93 25 -33 48 -67 52 -75 3 -8 18 -31 32 -50 14 -19
32 -46 39 -59 8 -13 23 -40 34 -60 11 -20 25 -42 30 -48 6 -7 7 -13 4 -13 -4
0 4 -15 17 -32 22 -31 111 -206 158 -313 57 -130 141 -384 175 -530 112 -484
130 -867 63 -1364 -18 -139 -28 -196 -63 -391 -20 -105 -20 -100 3 -100 15 0
35 30 85 130 36 71 75 153 86 182 11 29 25 62 30 73 22 50 93 292 114 390 48
229 66 410 66 650 0 212 -8 304 -52 580 -35 226 -123 592 -157 655 -5 9 -12
31 -16 50 -4 19 -11 40 -15 45 -6 8 -29 70 -35 95 -2 5 -14 38 -41 105 -31 76
-31 77 -84 200 -24 55 -212 431 -255 510 -15 28 -44 82 -64 120 -20 39 -39 72
-42 75 -3 3 -23 37 -44 75 -40 72 -60 109 -108 190 -15 27 -25 50 -23 52 13
13 526 -500 526 -525 0 -6 3 -12 8 -14 13 -6 142 -156 142 -165 0 -5 11 -20
25 -33 14 -13 23 -25 20 -28 -2 -3 7 -14 21 -25 14 -11 30 -29 35 -41 20 -43
37 -68 58 -82 11 -8 21 -20 21 -26 0 -6 15 -29 33 -52 27 -34 68 -95 155 -231
6 -11 18 -31 24 -45 7 -14 15 -27 19 -30 7 -6 53 -83 71 -120 7 -14 15 -27 19
-30 12 -10 228 -452 234 -480 4 -17 10 -30 15 -30 4 0 11 -12 14 -27 6 -25 21
-61 47 -115 5 -10 15 -35 23 -55 7 -21 30 -83 50 -138 21 -55 46 -129 56 -165
10 -36 28 -99 40 -140 54 -186 100 -419 134 -670 10 -73 25 -262 36 -454 13
-215 -3 -604 -35 -861 -43 -344 -110 -663 -201 -965 -41 -134 -111 -343 -140
-415 -9 -22 -20 -49 -24 -60 -53 -136 -64 -162 -109 -256 -17 -36 -31 -71 -31
-78 0 -6 -4 -11 -10 -11 -5 0 -10 -8 -10 -18 0 -10 -38 -94 -85 -188 -46 -93
-85 -175 -85 -181 0 -7 -4 -13 -9 -13 -5 0 -12 -12 -16 -27 -3 -15 -15 -47
-26 -71 -39 -85 -7 -98 73 -31 26 21 50 39 54 39 16 0 254 223 254 238 0 7 23
34 50 59 28 25 50 52 50 59 0 7 20 30 45 51 25 20 45 42 45 48 0 6 14 24 30
40 17 16 30 32 30 37 0 4 6 16 14 25 8 10 31 38 50 63 20 25 41 50 46 57 6 7
10 14 10 17 0 9 104 160 115 168 5 4 6 8 1 8 -5 0 1 9 13 19 13 11 20 25 16
30 -3 6 -1 11 4 11 6 0 11 7 11 15 0 7 6 18 13 22 13 9 38 53 119 213 29 58
56 107 59 110 4 3 10 16 14 30 4 14 10 27 14 30 10 8 40 73 47 103 3 15 10 27
14 27 4 0 13 23 20 50 7 28 16 50 21 50 5 0 9 8 9 18 0 9 6 29 14 44 8 15 17
42 21 60 4 18 11 38 15 43 4 6 24 64 44 130 21 66 42 129 46 140 22 54 124
514 134 605 3 25 12 99 21 165 30 221 34 259 34 371 1 61 4 113 7 117 7 7 6
394 -2 527 -9 145 0 160 15 25 7 -66 16 -129 21 -140 7 -17 20 -132 35 -304 2
-19 6 -57 9 -85 5 -44 10 -129 21 -353 1 -26 5 -55 9 -64 23 -53 -15 -1053
-43 -1144 -5 -16 -13 -72 -16 -123 -4 -50 -11 -94 -15 -97 -4 -3 -11 -38 -15
-80 -4 -41 -10 -77 -15 -80 -4 -3 -11 -36 -15 -75 -4 -38 -10 -70 -15 -70 -4
0 -10 -27 -14 -61 -3 -33 -9 -66 -13 -72 -5 -7 -13 -37 -20 -67 -12 -57 -32
-134 -41 -160 -3 -8 -6 -18 -6 -22 -1 -3 -4 -10 -8 -14 -5 -4 -8 -20 -8 -35 0
-15 -5 -31 -10 -34 -6 -4 -8 -11 -4 -16 3 -5 1 -15 -4 -22 -6 -7 -13 -29 -17
-49 -4 -21 -11 -38 -15 -38 -4 0 -11 -20 -14 -45 -4 -24 -11 -47 -15 -50 -5
-2 -12 -20 -15 -39 -4 -20 -13 -48 -21 -63 -8 -15 -15 -36 -15 -45 0 -10 -4
-18 -8 -18 -5 0 -14 -19 -20 -42 -19 -77 -45 -143 -59 -151 -7 -5 -11 -12 -8
-17 3 -5 1 -11 -5 -15 -6 -4 -8 -11 -5 -16 4 -5 -3 -22 -14 -38 -11 -15 -18
-31 -14 -35 3 -3 1 -6 -5 -6 -7 0 -12 -8 -12 -17 0 -19 -150 -326 -162 -331
-4 -2 -4 -10 -1 -18 3 -8 0 -14 -6 -14 -6 0 -11 -7 -11 -15 0 -8 -4 -15 -9
-15 -5 0 -12 -13 -16 -30 -3 -16 -14 -39 -24 -52 -10 -13 -28 -44 -40 -70 -13
-27 -26 -48 -30 -48 -3 0 -14 -17 -24 -37 -10 -21 -29 -56 -43 -78 -13 -22
-27 -48 -30 -57 -4 -10 -10 -18 -15 -18 -5 0 -9 -5 -9 -10 0 -12 -41 -73 -52
-78 -5 -2 -8 -10 -8 -18 0 -8 -7 -17 -16 -21 -8 -3 -13 -11 -11 -18 3 -6 -4
-17 -14 -24 -11 -6 -17 -16 -14 -21 3 -5 -3 -15 -14 -21 -10 -7 -17 -18 -14
-25 2 -7 -5 -17 -16 -24 -11 -6 -20 -14 -19 -18 3 -10 -34 -65 -54 -80 -10 -7
-18 -18 -18 -24 0 -11 -36 -58 -70 -93 -11 -12 -20 -25 -20 -29 0 -5 -20 -33
-45 -62 -25 -28 -45 -55 -45 -59 0 -8 -51 -68 -101 -121 -16 -16 -29 -35 -29
-41 0 -6 -20 -29 -45 -52 -25 -23 -45 -47 -45 -54 0 -7 -27 -38 -60 -68 -33
-29 -60 -59 -60 -65 0 -15 -581 -588 -625 -617 -18 -12 -67 -52 -108 -89 -41
-38 -78 -68 -81 -68 -4 0 -38 -27 -75 -60 -37 -33 -73 -60 -79 -60 -5 0 -12
-3 -14 -7 -5 -13 -96 -83 -106 -83 -6 0 -12 -3 -14 -7 -4 -11 -95 -83 -104
-83 -4 0 -26 -16 -50 -35 -23 -19 -47 -35 -52 -35 -6 0 -12 -3 -14 -8 -3 -7
-151 -110 -196 -137 -9 -5 -33 -22 -53 -37 -20 -16 -41 -28 -47 -28 -5 0 -15
-6 -21 -14 -7 -8 -26 -22 -44 -31 -18 -9 -59 -34 -92 -56 -33 -22 -68 -42 -77
-45 -10 -4 -18 -10 -18 -14 0 -4 -8 -10 -17 -14 -10 -3 -35 -16 -55 -28 -20
-13 -77 -45 -125 -73 -48 -27 -106 -60 -128 -72 -22 -13 -66 -37 -97 -53 -41
-21 -58 -36 -58 -50 0 -11 4 -20 10 -20 16 0 241 79 347 121 258 104 677 299
695 324 4 6 8 6 8 2 0 -5 12 0 28 11 15 11 65 40 112 64 113 60 170 92 263
150 43 26 81 48 84 48 3 0 19 10 36 23 17 12 39 27 48 32 9 6 42 26 73 45 95
58 193 124 296 200 30 22 64 44 75 49 12 5 27 16 34 25 7 9 19 16 26 16 7 0
15 7 19 15 3 8 12 15 20 15 8 0 16 3 18 8 4 9 75 62 83 62 4 0 31 20 59 45 29
25 56 45 60 45 6 0 79 57 177 140 20 16 39 30 42 30 3 0 19 12 36 28 63 56 97
84 116 95 11 6 28 21 38 34 10 13 22 21 27 18 4 -3 22 11 39 30 16 19 36 36
42 37 7 2 28 20 47 41 19 20 39 37 44 37 5 0 30 19 54 43 25 23 51 44 57 47
13 6 35 25 188 170 58 55 109 100 114 100 4 0 63 56 131 125 68 69 128 125
134 125 5 0 28 20 51 45 23 25 48 45 55 45 8 0 29 17 48 37 34 38 56 40 41 6
-5 -10 -9 -22 -10 -28 -2 -15 -14 -47 -31 -78 -7 -16 -14 -33 -14 -39 0 -10
-15 -48 -51 -124 -10 -23 -19 -46 -19 -53 0 -6 -4 -11 -9 -11 -8 0 -24 -37
-22 -52 1 -5 -4 -8 -9 -8 -6 0 -10 -7 -10 -16 0 -27 -79 -181 -96 -188 -9 -4
-14 -9 -11 -13 4 -3 2 -12 -4 -20 -6 -7 -8 -13 -3 -13 5 0 5 -4 -1 -8 -5 -4
-28 -43 -49 -87 -22 -44 -42 -82 -46 -85 -3 -3 -14 -23 -25 -45 -11 -22 -29
-53 -40 -70 -11 -16 -20 -32 -21 -35 -2 -16 -29 -60 -36 -60 -4 0 -8 -7 -8
-15 0 -8 -4 -15 -10 -15 -5 0 -9 -3 -8 -7 3 -15 -22 -63 -32 -63 -5 0 -10 -6
-10 -14 0 -8 -7 -21 -15 -30 -8 -8 -19 -25 -25 -38 -13 -29 -28 -53 -62 -99
-16 -20 -28 -40 -28 -44 0 -4 -13 -24 -30 -45 -17 -21 -30 -41 -30 -44 0 -9
-43 -70 -52 -74 -5 -2 -8 -10 -8 -17 0 -8 -12 -23 -27 -34 -14 -12 -23 -24
-20 -28 4 -3 -2 -13 -13 -20 -11 -8 -18 -18 -15 -23 3 -5 -6 -17 -20 -28 -14
-11 -25 -24 -25 -29 0 -10 -25 -43 -72 -95 -16 -16 -28 -34 -28 -39 0 -5 -13
-21 -30 -36 -16 -14 -30 -31 -30 -36 0 -10 -118 -147 -137 -160 -7 -4 -13 -13
-13 -19 0 -19 -426 -468 -445 -468 -3 0 -52 -43 -109 -95 -56 -53 -114 -103
-128 -113 -15 -9 -56 -43 -91 -74 -35 -32 -69 -58 -75 -58 -6 0 -12 -3 -14 -7
-4 -11 -115 -103 -123 -103 -4 0 -26 -15 -48 -32 -23 -18 -58 -44 -78 -58 -97
-65 -184 -125 -189 -130 -3 -3 -27 -19 -55 -35 -27 -15 -63 -38 -80 -49 -42
-30 -66 -44 -95 -58 -14 -7 -30 -18 -37 -24 -7 -7 -32 -22 -55 -34 -24 -12
-79 -42 -123 -66 -99 -55 -365 -189 -460 -231 -77 -34 -299 -130 -330 -143
-11 -5 -42 -18 -69 -29 -27 -12 -54 -21 -60 -21 -6 -1 -29 -9 -51 -20 -22 -11
-47 -19 -56 -20 -9 0 -19 -3 -23 -7 -15 -15 -556 -192 -726 -237 -30 -8 -82
-22 -115 -31 -33 -9 -105 -28 -160 -41 -55 -13 -116 -29 -135 -34 -19 -6 -55
-15 -80 -20 -25 -5 -63 -13 -85 -19 -22 -5 -51 -12 -65 -15 -452 -94 -518
-110 -771 -190 -192 -60 -493 -199 -699 -322 -310 -186 -592 -462 -756 -742
-128 -216 -164 -339 -164 -556 0 -87 6 -169 16 -220 36 -182 124 -393 229
-546 145 -212 439 -525 661 -702 107 -86 335 -245 439 -308 193 -116 420 -226
630 -308 276 -107 555 -185 824 -231 62 -11 115 -21 117 -24 7 -7 -217 -117
-237 -117 -8 0 -19 -4 -25 -8 -11 -11 -159 -64 -234 -86 -231 -66 -396 -88
-645 -88 -501 0 -852 124 -1200 423 -209 179 -357 363 -508 629 -36 65 -135
264 -162 330 -15 36 -31 74 -36 85 -80 190 -144 404 -183 612 -38 204 -46 268
-52 433 -11 282 36 584 129 832 33 87 149 325 198 407 22 34 39 65 39 67 0 2
30 49 66 105 288 445 668 855 1350 1455 56 49 112 98 125 108 99 79 390 365
466 458 70 87 127 161 138 179 5 9 40 61 76 116 142 212 239 406 320 640 34
99 35 103 9 103 -11 0 -20 -3 -20 -8 0 -4 -17 -31 -37 -59 -21 -28 -54 -75
-73 -103 -19 -29 -55 -78 -80 -111 -25 -32 -65 -86 -89 -120 -110 -152 -273
-330 -432 -472 -180 -160 -317 -259 -629 -457 -63 -40 -131 -83 -151 -96 -19
-13 -38 -24 -42 -24 -5 0 -13 -5 -20 -10 -7 -6 -55 -39 -107 -73 -233 -153
-409 -301 -745 -627 -94 -91 -216 -210 -273 -264 -56 -55 -105 -96 -108 -93
-3 3 6 39 20 79 172 469 354 798 691 1248 191 254 329 485 409 680 15 36 31
74 36 85 14 29 45 126 75 235 43 151 74 350 86 555 l12 190 -47 210 c-79 351
-125 460 -294 700 -275 389 -366 551 -421 750 -17 61 -60 211 -95 335 -35 124
-62 226 -61 228 2 2 34 -12 72 -31 52 -27 147 -54 388 -112 176 -43 352 -81
390 -85 69 -7 355 9 560 31 131 14 376 81 560 154 22 9 48 18 58 22 29 9 345
168 408 205 192 112 280 171 485 328 75 58 158 121 185 140 26 19 76 57 111
84 35 27 92 72 128 99 36 28 83 66 106 86 22 20 59 52 83 71 24 19 62 52 84
73 23 21 62 54 87 74 58 47 369 355 370 366 0 5 27 38 59 75 71 80 134 162
199 257 26 39 49 72 52 75 10 9 114 194 147 260 57 118 93 196 93 206 1 5 9
27 20 49 11 22 19 48 20 57 0 9 5 20 10 23 5 3 10 13 10 22 0 8 6 29 14 46 18
42 78 254 110 387 56 237 103 548 126 850 21 280 2 557 -61 895 -31 169 -112
460 -145 524 -8 14 -14 34 -14 43 0 9 -4 19 -9 22 -5 3 -12 18 -15 33 -4 16
-13 42 -21 58 -118 254 -246 481 -322 575 -13 15 -23 33 -23 39 0 6 -4 11 -9
11 -4 0 -20 17 -33 38 -14 20 -49 63 -78 95 -28 31 -49 57 -45 57 12 0 -336
340 -414 405 -40 33 -80 68 -89 78 -9 9 -20 17 -25 17 -7 0 -86 59 -107 80 -3
3 -18 14 -35 26 -16 11 -59 41 -95 66 -67 47 -249 158 -310 190 -19 10 -55 30
-80 44 -54 31 -318 164 -375 189 -22 10 -67 30 -100 45 -122 55 -347 144 -440
174 -27 9 -57 19 -65 23 -49 21 -306 100 -312 96 -5 -2 -8 -15 -8 -29 0 -27
-52 -102 -92 -133 -15 -12 -55 -22 -118 -29 -52 -6 -122 -16 -155 -22 -33 -6
-78 -13 -100 -15 -22 -3 -71 -9 -110 -15 -145 -22 -262 -36 -360 -44 -33 -3
-105 -11 -159 -19 -55 -8 -106 -13 -113 -10 -7 3 -19 1 -26 -5 -14 -11 -193
-25 -279 -23 -31 1 -59 -3 -63 -8 -4 -7 -47 -11 -106 -11 -79 0 -101 -3 -105
-15 -5 -12 -33 -15 -162 -15 -134 0 -158 -2 -175 -17 -18 -17 -63 -18 -652
-18 -589 0 -634 1 -652 18 -17 14 -40 17 -160 17 -113 0 -143 3 -153 15 -9 11
-35 15 -105 15 -71 0 -96 4 -105 15 -9 11 -25 14 -59 10 -25 -3 -80 -1 -121 5
-41 5 -82 11 -90 11 -8 1 -55 8 -105 15 -49 8 -115 16 -145 19 -30 2 -84 9
-120 15 -36 6 -72 11 -80 12 -8 0 -49 7 -90 15 -41 8 -102 19 -135 24 -33 6
-67 13 -75 16 -14 6 -66 19 -168 41 -24 5 -49 15 -55 21 -6 6 -25 11 -42 11
-17 0 -36 5 -42 11 -6 6 -22 16 -34 23 -19 9 -25 25 -36 86 -14 88 -44 284
-49 320 -17 145 -35 277 -39 289 -2 9 -9 52 -15 96 -11 87 -29 203 -53 335 -8
47 -15 92 -15 100 1 8 -5 42 -12 75 -7 33 -14 76 -16 95 -3 43 -29 192 -48
280 -17 76 -38 182 -61 300 -9 47 -23 110 -30 140 -16 66 -37 157 -60 265 -10
44 -24 100 -31 124 -8 25 -14 51 -14 60 0 8 -14 60 -31 115 -46 154 -58 196
-73 261 -8 33 -20 76 -27 95 -6 19 -17 51 -24 70 -7 19 -18 51 -25 70 -7 19
-15 48 -18 65 -3 16 -13 43 -23 60 -11 16 -19 38 -19 48 0 9 -4 25 -10 35 -5
9 -19 45 -30 79 -27 84 -68 176 -83 185 -6 4 -30 4 -53 1 -125 -17 -244 96
-244 231 1 152 147 263 290 220 133 -39 205 -191 149 -314 l-20 -45 34 -30
c55 -47 173 -146 230 -192 48 -38 98 -86 131 -123 7 -8 57 -58 111 -110 54
-52 108 -111 121 -132 13 -20 41 -56 63 -80 23 -23 41 -48 41 -54 0 -6 15 -28
34 -50 18 -21 40 -52 49 -69 8 -16 27 -41 41 -54 14 -14 26 -29 26 -35 0 -7
13 -27 29 -46 15 -19 35 -49 44 -66 9 -17 23 -34 32 -37 8 -4 15 -13 15 -21 0
-7 7 -16 15 -20 8 -3 15 -14 15 -24 0 -10 11 -29 25 -42 15 -14 41 -47 60 -75
19 -27 69 -87 113 -132 71 -74 83 -83 116 -83 32 0 37 4 51 36 19 45 19 83 0
108 -8 11 -15 31 -15 45 0 14 -7 35 -15 45 -8 11 -15 31 -15 45 0 14 -7 35
-15 45 -8 11 -15 30 -15 42 0 12 -6 35 -14 51 -26 54 -39 98 -46 163 -3 36
-12 78 -18 93 -7 16 -12 52 -12 81 0 30 -7 70 -15 89 -13 30 -15 102 -14 429
0 216 4 427 10 468 5 41 14 163 19 270 6 107 15 208 20 224 6 16 10 72 10 123
l0 95 -84 81 c-46 45 -96 102 -112 126 -27 42 -29 51 -29 145 0 88 3 107 25
150 14 27 46 67 71 90 111 100 302 102 412 6 120 -106 145 -267 64 -405 -33
-57 -35 -65 -30 -125 3 -36 11 -74 18 -85 7 -11 15 -34 19 -51 8 -35 63 -148
94 -192 12 -16 22 -35 22 -42 0 -7 12 -21 26 -33 15 -11 33 -35 40 -53 8 -18
29 -50 49 -71 19 -21 35 -42 35 -48 0 -5 23 -35 50 -65 28 -30 50 -58 50 -63
0 -5 20 -33 45 -61 25 -29 45 -58 45 -63 0 -5 13 -23 30 -39 16 -16 30 -35 30
-43 0 -7 14 -30 30 -51 17 -21 30 -45 30 -54 0 -9 4 -16 9 -16 11 0 51 -80 51
-102 0 -9 7 -18 15 -22 8 -3 15 -16 15 -29 0 -14 7 -30 15 -37 8 -7 15 -20 15
-29 0 -10 7 -26 15 -37 8 -10 15 -29 15 -40 0 -12 7 -27 15 -34 8 -7 15 -23
15 -35 0 -12 7 -28 15 -35 8 -7 15 -19 15 -27 0 -8 6 -27 14 -41 7 -15 23 -49
35 -77 12 -27 26 -58 32 -67 5 -10 9 -41 9 -70 1 -29 7 -64 15 -78 8 -14 14
-52 15 -86 0 -41 5 -66 14 -74 8 -6 16 -33 18 -58 2 -34 7 -47 18 -47 8 0 16
10 18 23 2 13 10 26 18 29 9 3 14 20 14 44 0 26 5 42 15 45 10 4 15 20 15 44
0 21 7 43 15 50 8 7 15 27 15 45 0 18 6 38 13 44 10 8 16 50 20 140 3 71 10
139 16 150 6 11 11 69 11 130 0 69 5 126 14 153 8 24 19 104 25 178 6 74 17
162 25 195 9 33 20 81 26 107 6 26 18 52 26 59 8 6 14 26 14 43 0 18 7 41 15
52 8 10 15 31 15 45 0 15 7 40 15 55 8 16 15 38 15 50 0 11 7 29 15 40 8 10
15 31 15 46 0 15 4 29 9 32 5 4 12 24 16 46 4 22 11 42 16 46 5 3 9 13 9 22 0
10 9 34 20 55 11 20 20 45 20 54 0 10 7 27 15 37 8 11 15 30 15 42 0 12 7 27
15 34 8 7 15 23 15 35 0 13 6 36 14 52 35 69 46 130 46 240 0 78 -4 115 -12
123 -7 5 -37 28 -65 50 -33 25 -63 60 -80 93 -25 46 -28 63 -28 147 0 87 3
100 30 149 77 139 241 201 393 148z m-8576 -3888 c-169 -362 -483 -727 -935
-1093 -178 -143 -414 -317 -482 -353 -33 -18 -56 -33 -52 -33 11 0 -37 -69
-148 -215 -50 -66 -134 -176 -186 -245 -105 -138 -142 -194 -133 -203 3 -3 42
19 86 49 154 105 348 191 507 224 129 27 328 27 450 0 89 -20 368 -113 384
-129 4 -4 3 -19 -2 -33 -17 -44 -229 -163 -381 -214 l-85 -29 -522 0 c-511 0
-522 0 -550 -21 -41 -30 -148 -174 -280 -379 -64 -99 -167 -256 -228 -350
-112 -170 -154 -249 -141 -262 4 -4 27 16 52 45 25 29 52 52 60 52 8 0 42 21
76 46 257 189 580 273 878 230 129 -19 230 -50 339 -103 l73 -37 -33 -28
c-122 -102 -301 -204 -440 -252 -114 -38 -183 -46 -534 -56 -363 -11 -396 -14
-518 -42 -73 -16 -90 -24 -97 -43 -12 -33 -152 -290 -233 -430 -75 -129 -247
-468 -247 -487 0 -6 44 32 98 84 183 178 338 262 558 303 164 31 423 10 619
-50 73 -22 176 -67 173 -75 -8 -19 -163 -148 -233 -195 -230 -152 -406 -201
-870 -240 -204 -17 -335 -40 -428 -75 l-57 -22 -60 -124 c-140 -291 -359 -802
-395 -921 -9 -33 8 -28 29 8 29 49 174 228 245 303 155 162 357 285 536 326
119 28 228 24 358 -14 86 -26 299 -125 312 -146 19 -30 -132 -184 -270 -277
-211 -141 -322 -180 -735 -253 -225 -40 -322 -64 -418 -100 -115 -44 -140 -63
-166 -123 -33 -73 -172 -490 -251 -752 -37 -121 -71 -228 -77 -238 -5 -9 -6
-22 -3 -27 4 -6 31 25 62 67 95 133 147 195 249 293 247 238 492 332 824 316
120 -5 321 -44 344 -66 25 -24 -174 -234 -321 -339 -160 -115 -316 -180 -633
-267 -193 -53 -217 -60 -295 -87 -96 -34 -179 -72 -247 -114 -51 -30 -58 -38
-58 -66 0 -18 -7 -45 -15 -61 -8 -15 -15 -36 -15 -46 0 -10 -23 -114 -51 -232
-68 -284 -86 -373 -104 -497 -23 -158 -18 -167 25 -56 60 152 152 291 277 419
124 125 261 207 411 245 114 29 337 29 466 0 93 -21 204 -56 220 -70 14 -12
-61 -141 -127 -215 -142 -159 -271 -261 -444 -348 -89 -44 -134 -63 -463 -191
-157 -61 -328 -146 -401 -199 -42 -31 -47 -39 -67 -117 -12 -46 -26 -129 -32
-184 -6 -55 -15 -127 -20 -160 -20 -124 -40 -340 -40 -422 l0 -85 33 19 c25
15 49 51 107 162 42 78 96 167 120 198 25 30 68 85 96 122 92 120 216 211 365
267 69 26 84 28 229 28 138 0 165 -3 251 -27 53 -15 113 -34 134 -42 33 -14
36 -19 30 -43 -12 -49 -54 -127 -107 -197 -71 -93 -226 -249 -313 -313 -98
-72 -268 -172 -293 -172 -11 0 -23 -4 -26 -9 -4 -5 -93 -54 -200 -110 -240
-124 -322 -174 -411 -248 -68 -57 -70 -60 -73 -108 -1 -28 -12 -137 -22 -243
-14 -131 -20 -265 -20 -423 0 -213 2 -234 21 -280 12 -27 25 -49 29 -49 3 0
17 44 29 98 68 299 243 607 429 756 92 73 141 100 252 136 138 45 230 49 395
16 71 -15 147 -32 168 -38 45 -14 45 -20 -9 -137 -85 -184 -279 -415 -442
-526 -56 -38 -72 -54 -68 -68 4 -16 1 -18 -20 -13 -19 5 -39 -4 -87 -37 -34
-25 -120 -79 -192 -122 -171 -102 -321 -211 -423 -309 l-83 -80 6 -140 c14
-313 71 -954 84 -941 8 9 49 144 44 148 -5 6 50 240 76 322 101 321 308 578
536 666 102 40 223 52 433 43 129 -5 172 -10 172 -19 0 -7 -9 -41 -20 -76 -18
-61 -41 -182 -56 -299 l-6 -54 -23 28 c-13 16 -28 25 -34 22 -6 -4 -29 -33
-50 -64 -109 -160 -336 -373 -556 -522 -130 -88 -295 -234 -418 -369 l-78 -86
6 -70 c3 -38 15 -126 26 -195 46 -288 71 -439 84 -500 42 -205 70 -330 76
-330 3 0 16 84 28 188 59 481 155 739 348 929 146 143 314 202 578 203 l111 0
38 -95 c25 -63 35 -102 31 -117 -19 -66 -153 -314 -211 -393 -43 -57 -180
-202 -379 -400 -403 -399 -475 -490 -475 -595 0 -62 43 -232 138 -545 25 -82
61 -206 82 -275 20 -69 41 -125 46 -125 5 0 17 16 26 35 15 29 18 64 18 210 0
213 11 324 45 453 36 137 58 192 116 288 126 211 303 326 569 370 113 19 320
26 320 12 0 -29 -24 -150 -41 -213 -79 -281 -168 -438 -429 -756 -253 -306
-307 -375 -370 -469 -68 -102 -140 -234 -140 -257 0 -15 161 -413 237 -588 28
-63 63 -145 78 -182 28 -67 28 -68 67 -68 21 0 38 3 38 8 0 4 -7 70 -15 147
-28 273 -15 531 36 685 102 314 354 494 795 569 l107 18 -6 -91 c-3 -50 -15
-136 -26 -191 -56 -270 -147 -468 -378 -819 -167 -254 -195 -299 -263 -435
-69 -137 -95 -201 -104 -258 -6 -39 0 -54 61 -172 162 -308 480 -825 490 -794
2 6 -12 64 -30 129 -55 190 -75 274 -82 349 -3 38 -11 73 -18 77 -9 5 -12 63
-12 210 0 217 10 295 51 406 89 240 361 432 735 521 26 6 54 14 64 18 17 6 18
-3 12 -173 -4 -115 -14 -217 -27 -284 -34 -171 -115 -402 -213 -600 -51 -103
-53 -105 -92 -111 l-40 -6 37 -2 37 -1 -66 -137 c-66 -139 -120 -270 -154
-378 -29 -92 -62 -267 -52 -274 5 -3 85 -107 178 -231 260 -345 455 -578 487
-580 10 0 4 19 -27 85 -146 315 -216 580 -215 815 0 163 20 259 80 383 100
202 318 380 617 500 l62 25 5 -36 c29 -182 32 -324 11 -502 -23 -199 -73 -436
-95 -450 -4 -3 -20 -45 -35 -95 -14 -49 -46 -151 -70 -225 -99 -310 -142 -491
-149 -635 l-6 -100 115 -119 c62 -66 111 -124 108 -129 -3 -6 -2 -7 4 -4 6 4
64 -49 129 -116 171 -176 382 -367 406 -367 4 0 -5 27 -22 60 -17 34 -28 66
-24 72 4 7 3 8 -4 4 -13 -8 -46 50 -37 65 4 5 3 8 -2 7 -4 -2 -10 2 -12 7 -3
6 -10 16 -17 23 -7 7 -10 20 -7 29 5 12 3 14 -7 8 -10 -6 -12 -4 -7 9 4 9 3
15 -1 12 -12 -7 -84 133 -76 147 4 7 3 9 -1 4 -11 -9 -87 173 -80 191 2 7 0
10 -5 7 -6 -3 -11 3 -11 14 -2 25 -3 29 -16 61 -19 46 -43 212 -43 299 0 85
27 240 51 296 63 147 223 327 385 435 113 74 229 129 244 114 5 -5 18 -54 29
-109 60 -299 66 -469 26 -755 -23 -168 -59 -362 -73 -384 -2 -5 -6 -23 -7 -40
-4 -46 -43 -214 -45 -191 -1 18 -2 18 -15 -5 -30 -51 -57 -189 -35 -175 6 4 9
12 7 19 -3 6 6 38 19 71 l24 60 -4 -45 c-17 -194 -28 -424 -22 -470 8 -54 9
-56 99 -131 209 -174 333 -273 577 -458 74 -56 147 -113 162 -126 35 -31 43
-18 19 29 l-19 37 54 -31 c29 -16 57 -30 62 -30 4 0 14 17 21 38 33 96 44 121
52 116 12 -7 11 7 -1 26 -7 11 -11 9 -19 -13 -6 -16 -11 -32 -11 -37 0 -9 -39
-102 -45 -109 -2 -2 -38 13 -78 34 -74 36 -76 39 -180 183 -212 296 -297 470
-352 717 -23 104 -16 271 15 372 13 42 27 70 33 66 6 -3 7 -2 4 4 -8 13 24 81
74 156 40 60 47 81 29 92 -18 11 -11 20 45 54 35 21 61 31 72 27 10 -4 14 -4
11 0 -13 13 267 224 298 224 29 0 119 -295 148 -485 33 -210 32 -355 -4 -867
-16 -233 -14 -542 5 -637 27 -136 35 -147 198 -254 274 -182 695 -437 719
-437 9 0 9 3 2 8 -6 4 -13 14 -16 22 -4 8 -66 83 -138 165 -229 260 -322 390
-405 570 -150 323 -130 624 59 870 95 122 249 270 273 260 8 -2 11 0 8 5 -7
12 63 79 83 80 7 0 10 -4 7 -10 -3 -5 -2 -10 4 -10 24 0 165 -307 173 -376 2
-16 6 -31 9 -34 14 -12 62 -253 79 -397 19 -158 25 -269 35 -590 3 -94 10
-197 16 -230 5 -32 9 -94 8 -138 -1 -51 2 -79 9 -78 15 4 41 -80 57 -187 12
-81 15 -86 68 -117 136 -82 825 -425 882 -439 37 -9 24 14 -33 56 -94 69 -438
422 -517 530 -86 117 -185 310 -210 410 -23 91 -31 264 -15 342 37 193 125
341 324 545 l123 127 65 -100 c116 -176 252 -491 275 -638 3 -16 8 -39 13 -51
13 -34 76 -405 94 -555 24 -195 59 -404 69 -411 4 -3 19 -48 32 -99 22 -84 55
-184 87 -267 14 -38 76 -69 390 -194 111 -45 208 -85 213 -89 6 -5 51 -22 100
-38 50 -16 128 -44 174 -61 138 -51 137 -41 -11 72 -167 127 -228 179 -371
317 -238 231 -349 394 -413 606 -23 77 -27 107 -27 219 0 119 2 138 31 225 17
52 53 131 78 175 72 123 255 355 280 355 6 0 40 -31 75 -68 59 -63 179 -250
242 -377 77 -155 149 -375 222 -670 112 -459 130 -526 175 -649 61 -168 137
-336 161 -358 22 -19 263 -100 662 -223 274 -84 307 -92 307 -77 -1 4 -62 47
-138 97 -322 210 -584 437 -722 624 -74 101 -152 259 -175 356 -22 92 -22 258
1 350 20 82 77 211 136 304 48 76 187 261 197 261 11 0 107 -84 138 -120 169
-201 292 -408 391 -660 25 -63 98 -270 163 -460 64 -190 129 -376 143 -415 38
-99 157 -343 199 -405 43 -63 46 -65 382 -171 121 -39 307 -99 413 -136 106
-36 195 -63 198 -60 6 6 -8 16 -201 153 -225 159 -381 287 -526 433 -199 200
-311 369 -376 566 -23 70 -26 97 -27 220 0 171 13 228 88 380 49 98 117 199
199 295 32 37 16 44 153 -71 177 -151 355 -376 482 -609 72 -132 131 -284 264
-685 132 -398 204 -589 280 -740 41 -82 43 -85 92 -101 28 -9 140 -52 248 -95
108 -44 201 -79 207 -79 15 0 309 -120 441 -180 63 -29 162 -70 220 -90 58
-21 170 -66 250 -100 303 -130 366 -157 393 -170 21 -11 35 -11 55 -3 15 6
144 61 287 123 143 62 307 129 365 150 58 20 157 61 220 90 150 68 398 171
430 177 14 3 113 40 220 83 107 42 218 85 246 94 49 16 51 19 92 101 75 150
147 341 280 740 176 528 225 642 377 870 123 186 284 362 453 495 l43 34 27
-33 c101 -126 150 -200 198 -296 76 -154 89 -209 88 -380 -1 -123 -4 -150 -27
-220 -113 -346 -399 -652 -999 -1069 -93 -64 -119 -86 -101 -86 4 0 94 29 198
65 105 35 289 95 410 134 339 107 341 108 382 172 107 168 198 386 347 831
186 558 270 740 454 988 89 120 133 169 183 206 26 19 49 34 51 34 2 0 28 -29
56 -65 135 -168 233 -343 273 -485 27 -98 29 -255 5 -360 -22 -93 -109 -272
-178 -365 -132 -179 -413 -421 -723 -623 -74 -48 -134 -90 -135 -94 0 -16 36
-6 367 96 460 142 594 190 613 217 28 42 102 213 150 345 46 128 70 214 145
529 54 229 72 296 130 475 70 221 131 350 269 570 43 69 152 190 170 190 25 0
210 -235 279 -355 146 -252 152 -512 19 -784 -107 -220 -357 -483 -719 -758
-149 -113 -150 -123 -12 -72 46 17 120 43 164 58 44 15 100 37 125 49 25 12
125 53 224 92 98 39 218 89 266 111 l88 41 51 156 c28 87 55 176 61 200 6 23
14 42 19 42 4 0 8 6 8 13 0 6 7 55 16 107 9 52 26 169 38 260 23 184 71 468
96 575 61 262 173 527 304 722 l52 77 126 -130 c253 -260 342 -453 328 -712
-12 -224 -97 -420 -282 -647 -72 -88 -319 -337 -460 -464 -62 -55 -67 -62 -40
-56 70 15 895 434 924 469 6 8 19 54 27 102 9 49 26 116 40 150 17 42 24 80
24 125 0 35 4 90 10 122 5 32 12 140 15 240 8 285 15 390 36 570 34 296 117
575 228 765 l42 73 50 -42 c27 -22 47 -45 43 -50 -3 -5 1 -6 8 -4 16 6 190
-163 253 -246 206 -266 226 -567 62 -904 -84 -172 -154 -271 -384 -537 -144
-167 -166 -198 -144 -198 14 0 446 263 651 397 212 138 219 146 245 287 21
118 21 422 -2 711 -23 296 -22 639 1 780 19 118 40 208 58 253 6 15 10 31 9
36 -4 16 41 136 49 131 4 -3 6 3 3 13 -2 11 2 26 11 34 8 9 12 18 9 22 -4 3
-2 6 4 6 5 0 13 -3 17 -7 4 -5 11 -8 14 -8 17 0 82 -48 77 -56 -4 -5 0 -7 7
-4 7 3 28 -8 46 -24 17 -17 32 -27 32 -24 0 4 11 -4 25 -17 20 -19 23 -26 12
-39 -11 -14 -10 -14 5 -2 16 12 27 4 106 -75 305 -307 343 -658 120 -1098 -74
-144 -284 -460 -335 -502 -25 -21 -63 -85 -63 -106 0 -19 2 -20 13 -6 6 8 111
91 232 183 121 93 251 194 289 224 38 31 83 67 100 81 17 13 75 62 129 108
l97 83 1 112 c2 261 -13 420 -55 612 -57 254 -67 304 -76 379 -5 43 -8 82 -5
86 3 5 0 12 -6 15 -5 4 -9 21 -8 39 1 17 -2 40 -7 51 -5 11 -9 110 -9 220 0
191 3 222 40 415 21 109 29 141 37 146 14 9 220 -94 213 -106 -4 -6 1 -7 11
-3 13 5 15 3 9 -7 -5 -8 -4 -11 2 -7 17 11 125 -76 221 -178 50 -54 92 -103
92 -108 0 -4 14 -29 31 -54 37 -53 61 -120 83 -225 18 -85 22 -268 6 -268 -5
0 -7 -6 -4 -14 7 -17 -19 -151 -44 -231 -40 -127 -160 -381 -237 -505 -40 -64
-85 -160 -76 -160 24 0 159 125 449 418 l314 316 -7 100 c-10 149 -54 336
-145 621 -21 66 -51 161 -66 210 -15 50 -29 96 -31 103 -4 8 8 12 38 12 27 0
39 3 31 9 -7 4 -30 6 -50 4 l-37 -4 -27 103 c-39 147 -49 211 -69 426 -10 104
-10 160 -1 266 7 74 15 148 18 164 l6 30 62 -25 c113 -46 272 -134 360 -200
159 -119 274 -288 316 -466 25 -102 27 -217 5 -217 -8 0 -15 -4 -15 -10 0 -5
7 -10 16 -10 34 0 0 -245 -58 -420 -17 -52 -35 -97 -40 -98 -4 -2 -6 -8 -3
-13 7 -11 -64 -191 -79 -201 -6 -4 -7 -8 -3 -8 5 0 2 -12 -7 -27 -25 -49 -48
-104 -43 -109 4 -5 67 25 67 32 0 3 -6 2 -12 -2 -10 -6 73 89 102 116 18 18
220 275 340 435 78 105 151 200 162 211 17 20 18 27 8 90 -26 156 -114 402
-219 612 l-51 102 132 0 c72 0 128 3 125 7 -4 3 -64 6 -134 7 l-128 1 -25 50
c-28 57 -79 167 -108 236 -48 111 -114 323 -132 424 -12 66 -23 180 -27 284
-6 162 -5 174 11 168 9 -4 59 -18 111 -32 334 -89 563 -246 666 -460 59 -122
73 -204 73 -448 1 -146 -2 -210 -10 -215 -7 -4 -17 -48 -23 -97 -6 -50 -35
-176 -65 -280 -30 -105 -52 -192 -51 -194 10 -9 45 43 239 359 132 214 174
286 258 449 80 154 80 155 22 301 -48 119 -136 274 -284 500 -158 242 -169
260 -226 362 -124 225 -203 478 -220 709 l-7 96 104 -18 c306 -53 497 -142
642 -298 178 -193 240 -496 192 -946 -8 -77 -15 -146 -15 -152 0 -8 14 -13 38
-13 38 0 38 0 72 78 18 42 59 138 91 212 74 173 132 315 169 413 16 42 37 91
45 107 15 30 15 32 -42 135 -79 142 -158 253 -337 468 -329 396 -412 516 -486
699 -36 91 -94 301 -104 376 l-7 52 97 0 c190 0 381 -42 519 -113 91 -47 228
-190 286 -297 111 -206 148 -387 149 -725 0 -142 3 -176 18 -204 9 -19 21 -34
27 -33 5 0 20 36 33 79 13 43 40 134 62 203 21 69 50 168 65 220 15 52 36 123
46 157 62 212 72 308 39 373 -43 84 -188 245 -440 490 -354 344 -427 434 -539
665 -77 158 -77 161 -43 238 16 34 32 75 36 91 l7 28 147 -5 c179 -6 258 -23
376 -81 71 -34 107 -60 164 -116 193 -192 291 -440 342 -865 12 -93 23 -189
26 -212 3 -24 9 -43 13 -43 5 0 13 24 19 53 45 209 84 412 102 527 12 74 32
203 46 286 36 225 38 212 -59 322 -88 99 -208 210 -322 295 -38 29 -122 92
-185 139 -211 157 -369 313 -466 457 -44 65 -52 69 -79 35 l-23 -29 -7 60
c-10 92 -34 222 -56 300 -10 38 -19 72 -19 76 0 11 344 19 430 10 357 -39 625
-343 751 -852 16 -65 29 -130 29 -145 0 -14 10 -58 21 -97 22 -73 39 -106 39
-74 0 9 9 95 19 190 11 94 22 210 25 257 4 47 11 139 16 205 5 66 12 189 15
273 l7 154 -74 69 c-89 83 -317 251 -413 303 -38 21 -117 69 -174 108 -77 51
-111 68 -127 64 -18 -5 -21 -2 -17 12 3 13 -8 26 -39 47 -187 122 -379 345
-473 548 -57 123 -57 121 17 140 119 31 266 57 326 57 79 0 240 -42 327 -86
244 -124 463 -444 558 -818 18 -69 35 -126 38 -126 4 0 15 17 25 38 17 32 19
67 22 272 2 160 -2 283 -12 385 -9 83 -19 194 -22 248 l-7 98 -50 45 c-75 67
-180 133 -376 235 -97 50 -198 104 -224 120 -27 16 -55 29 -64 29 -21 0 -199
107 -288 172 -87 64 -242 220 -313 313 -53 70 -95 148 -107 197 -6 24 -3 29
30 43 21 8 81 27 134 42 86 24 113 27 251 27 145 0 160 -2 229 -28 151 -57
284 -155 366 -271 25 -34 53 -69 62 -76 27 -23 104 -146 168 -271 49 -94 66
-120 93 -132 l32 -16 0 84 c0 81 -21 298 -40 421 -5 33 -14 105 -20 160 -6 55
-20 138 -33 184 -20 78 -25 87 -67 117 -86 63 -257 146 -475 229 -307 117
-432 176 -554 258 -134 90 -303 261 -367 370 -50 85 -49 95 11 118 185 72 475
92 645 46 155 -43 282 -120 403 -244 126 -128 217 -266 277 -418 25 -65 40
-89 40 -64 0 33 -30 229 -49 314 -40 186 -122 532 -136 575 -8 25 -15 57 -15
72 0 22 -10 33 -57 61 -116 71 -306 140 -578 212 -356 94 -567 203 -764 395
-92 88 -168 187 -155 199 5 5 56 21 113 35 126 33 323 44 452 27 317 -42 587
-233 852 -604 31 -42 58 -73 62 -67 3 5 2 18 -3 27 -6 10 -42 124 -82 253 -84
275 -213 663 -246 737 -26 60 -51 78 -166 123 -92 35 -189 58 -393 94 -426 76
-543 115 -750 252 -98 64 -232 186 -266 241 -27 44 -24 47 106 111 210 103
368 132 533 97 245 -51 456 -200 682 -481 53 -66 105 -135 115 -152 17 -28 35
-42 35 -27 0 32 -256 635 -371 875 l-88 185 -78 28 c-104 38 -257 63 -493 81
-108 8 -237 22 -289 31 -180 31 -379 115 -529 223 -80 57 -202 161 -202 172 0
9 110 55 190 79 36 11 117 30 180 42 148 28 378 23 505 -11 169 -45 346 -153
498 -303 42 -43 77 -73 77 -67 0 19 -179 368 -262 510 -46 80 -117 208 -157
285 l-73 140 -61 18 c-87 25 -341 47 -547 47 -450 0 -625 51 -908 263 l-94 70
29 18 c62 42 233 99 355 120 318 55 673 -37 925 -238 23 -18 51 -33 62 -33 12
0 21 -3 21 -7 1 -14 79 -97 85 -91 13 13 -44 119 -159 294 -67 100 -167 254
-224 341 -122 189 -227 329 -265 357 -28 21 -39 21 -555 21 l-527 0 -89 32
c-92 34 -249 114 -323 164 -43 30 -62 64 -46 80 16 16 291 109 387 130 116 26
307 28 428 4 163 -32 343 -108 498 -210 55 -36 105 -65 111 -63 11 4 -110 179
-205 298 -100 125 -161 206 -218 289 -45 66 -69 90 -109 112 -78 43 -358 254
-554 417 -398 332 -688 682 -847 1021 -27 57 -48 107 -46 111 4 12 214 -54
343 -107 381 -156 717 -406 937 -698 62 -82 238 -348 275 -415 17 -30 46 -93
64 -140 43 -109 230 -398 262 -405 12 -2 36 -6 52 -7 l30 -3 -3 60 c-2 33 -14
92 -28 132 -52 153 -68 264 -69 463 0 222 12 281 90 445 54 114 74 141 99 132
25 -10 136 -186 197 -311 61 -127 119 -311 145 -455 19 -110 20 -279 1 -361
-8 -36 -18 -96 -21 -135 -4 -38 -15 -109 -26 -157 -82 -365 -80 -336 -27 -411
24 -34 120 -174 212 -312 236 -351 288 -425 297 -425 11 0 10 104 -1 116 -15
16 -61 244 -82 409 -6 50 -11 176 -11 280 -1 185 0 193 30 288 39 122 81 207
145 292 77 103 80 103 155 -51 69 -138 97 -211 116 -296 9 -40 21 -82 26 -93
17 -37 50 -269 50 -350 0 -105 -44 -377 -80 -490 -132 -419 -144 -485 -96
-548 44 -60 227 -371 285 -487 32 -63 71 -136 87 -161 16 -25 40 -69 53 -97
14 -29 27 -52 30 -52 12 0 -1 174 -14 184 -13 11 -29 170 -42 409 -7 133 12
357 39 457 41 151 159 334 281 434 51 41 52 42 62 19 36 -89 110 -315 125
-384 35 -156 50 -412 30 -522 -46 -255 -91 -405 -193 -637 -30 -69 -69 -164
-87 -212 l-33 -88 70 -147 c86 -178 189 -409 268 -595 31 -76 61 -138 66 -138
11 0 11 -4 13 370 1 280 4 327 23 420 53 256 140 429 285 566 68 64 166 130
176 118 12 -14 38 -106 68 -239 25 -109 27 -139 27 -330 0 -191 -2 -222 -27
-339 -15 -71 -41 -167 -58 -215 -38 -110 -124 -291 -137 -291 -6 0 -11 -9 -11
-20 0 -19 -60 -140 -151 -305 -56 -102 -57 -147 -4 -290 20 -55 43 -122 52
-149 8 -27 23 -65 34 -85 10 -20 19 -41 19 -47 0 -6 26 -92 59 -190 32 -98 66
-205 75 -238 10 -32 21 -54 26 -50 17 19 31 125 40 318 11 217 28 335 66 462
13 45 24 86 24 92 0 6 14 47 31 92 60 157 193 328 325 417 77 52 163 96 178
90 6 -3 20 -56 31 -118 28 -163 26 -440 -4 -602 -44 -235 -162 -508 -325 -749
-287 -426 -268 -389 -246 -468 5 -19 11 -51 14 -70 2 -19 16 -70 30 -112 27
-84 81 -292 91 -348 15 -99 88 -400 96 -400 7 0 16 57 25 170 12 141 54 372
90 493 19 67 39 126 44 132 4 5 16 37 25 70 40 137 125 274 241 386 116 111
206 167 347 215 63 21 68 22 75 6 11 -31 7 -315 -6 -417 -15 -107 -67 -322
-84 -343 -6 -7 -23 -47 -38 -90 -75 -215 -225 -441 -514 -777 -43 -49 -95
-113 -117 -141 l-39 -51 16 -109 c24 -169 31 -210 52 -344 11 -69 23 -154 27
-190 14 -153 48 -340 61 -340 15 0 15 0 54 175 105 477 228 746 431 940 98 94
196 158 308 202 72 28 175 52 229 53 16 0 8 -92 -20 -235 -11 -55 -26 -135
-34 -178 -44 -238 -184 -505 -423 -802 -35 -44 -148 -163 -251 -265 -103 -102
-201 -207 -219 -235 l-32 -49 5 -456 c3 -250 9 -475 14 -500 l8 -45 16 35 c8
19 21 53 28 75 32 99 168 430 217 530 102 204 235 375 375 480 125 94 326 171
497 190 l64 7 -7 -83 c-28 -314 -212 -688 -483 -982 -98 -106 -338 -320 -503
-449 -47 -36 -114 -96 -150 -132 l-65 -67 -4 -189 c-2 -142 -6 -190 -15 -190
-10 0 -14 -78 -19 -327 -3 -180 -4 -329 -1 -332 8 -9 24 22 24 47 0 30 125
317 195 448 101 187 235 376 348 486 177 174 436 278 694 278 l96 0 -7 -61
c-10 -86 -40 -177 -100 -304 -64 -133 -114 -217 -209 -344 -92 -124 -290 -321
-392 -390 -44 -30 -109 -78 -145 -107 -36 -29 -157 -112 -270 -184 -113 -73
-226 -147 -251 -166 l-46 -34 -12 -107 c-12 -101 -29 -207 -101 -634 -38 -225
-44 -279 -32 -279 5 0 47 66 93 148 208 369 427 647 624 792 204 151 467 217
697 176 51 -9 99 -20 106 -25 13 -8 -17 -116 -60 -211 -32 -72 -119 -205 -196
-302 -243 -304 -468 -466 -1089 -781 -302 -153 -279 -134 -299 -248 -3 -18
-17 -72 -30 -119 -56 -197 -77 -270 -100 -350 -64 -219 -76 -260 -95 -330 -11
-41 -22 -83 -25 -92 -12 -40 24 -13 66 49 187 277 471 593 660 734 218 163
469 246 663 221 86 -11 222 -48 295 -79 l42 -18 -65 -109 c-262 -437 -647
-720 -1279 -942 -72 -26 -152 -54 -264 -94 -55 -20 -63 -26 -58 -44 5 -20 4
-20 -9 -2 -13 18 -16 17 -83 -8 -38 -15 -76 -32 -85 -39 -8 -7 -58 -120 -111
-252 -120 -303 -171 -417 -181 -407 -5 4 -5 2 -2 -4 4 -6 -16 -63 -45 -125
-28 -63 -59 -138 -69 -167 -17 -49 -17 -52 -1 -40 10 7 59 58 109 113 202 222
492 474 713 618 55 36 230 108 345 143 85 26 315 26 400 1 106 -32 285 -118
285 -137 0 -44 -57 -124 -177 -247 -185 -189 -323 -287 -573 -406 -137 -66
-336 -142 -445 -171 -33 -9 -93 -25 -132 -36 -40 -12 -137 -34 -215 -50 -157
-32 -332 -72 -419 -96 -53 -15 -59 -20 -85 -68 -15 -28 -38 -67 -51 -86 l-23
-35 0 63 c0 34 -3 62 -7 62 -9 0 -8 -119 0 -127 7 -7 -82 -174 -178 -333 -45
-74 -116 -193 -159 -263 -85 -141 -93 -157 -78 -157 5 0 95 66 198 147 236
184 332 253 459 330 209 126 401 209 555 239 86 17 289 19 370 4 81 -14 243
-99 338 -176 l84 -67 -49 -50 c-67 -69 -210 -187 -296 -245 -174 -117 -497
-261 -642 -286 -11 -2 -45 -11 -75 -20 -141 -41 -488 -90 -600 -84 -14 0 -65
-4 -115 -10 -49 -7 -121 -12 -160 -12 -90 0 -189 -16 -241 -39 -27 -12 -56
-39 -88 -82 -27 -35 -53 -63 -58 -61 -5 1 -7 -2 -4 -7 9 -14 -348 -476 -366
-475 -9 1 -14 -5 -11 -15 2 -9 -28 -53 -72 -105 -42 -50 -80 -97 -85 -107 -15
-26 22 -13 91 33 32 21 60 38 63 38 3 0 31 16 62 34 32 19 62 32 67 29 6 -3 7
-1 4 4 -4 6 17 23 49 39 30 15 57 32 60 36 3 4 15 3 27 -4 20 -10 21 -9 9 5
-11 13 -10 16 7 22 12 3 25 4 31 0 6 -4 7 1 3 12 -6 16 -5 16 10 4 9 -7 14
-18 11 -25 -3 -6 1 -3 10 7 8 11 12 26 9 35 -4 9 -2 13 4 9 6 -4 16 0 23 8 7
8 16 12 21 9 5 -3 9 0 9 6 0 6 5 8 10 5 6 -3 10 -1 10 5 0 6 30 25 68 41 37
17 78 37 92 44 14 7 28 13 33 14 4 0 21 8 38 17 17 8 37 13 45 10 8 -3 13 -2
10 3 -7 11 72 44 85 36 5 -4 9 -2 9 2 0 7 121 48 145 48 6 0 15 3 20 6 6 4 35
12 65 20 113 27 486 12 466 -19 -2 -4 9 -7 25 -8 37 -1 149 -56 183 -90 14
-15 26 -23 26 -19 0 4 7 2 15 -5 8 -7 12 -16 9 -21 -3 -5 -2 -8 3 -7 12 3 53
-21 53 -32 0 -5 16 -25 37 -45 20 -19 33 -35 28 -35 -4 0 4 -12 19 -26 34 -35
33 -50 -6 -86 -132 -123 -518 -313 -693 -342 -5 -1 -14 -4 -20 -7 -12 -8 -89
-24 -175 -38 -36 -6 -78 -13 -95 -16 -91 -15 -480 -24 -671 -15 -115 6 -303
10 -419 11 l-210 0 -95 -103 c-193 -209 -240 -252 -321 -290 -97 -46 -199
-129 -329 -267 -58 -62 -115 -114 -127 -117 -13 -4 -23 -10 -23 -16 0 -27 57
17 158 123 111 116 203 196 273 236 20 11 49 29 65 39 l29 18 -19 -24 c-11
-14 -96 -101 -190 -194 -116 -115 -166 -170 -155 -173 8 -2 60 17 115 43 454
212 769 318 1057 354 133 17 360 8 452 -17 130 -36 250 -108 336 -200 68 -73
169 -229 169 -262 0 -30 -286 -160 -467 -211 -220 -63 -323 -75 -648 -74 -290
0 -439 12 -657 53 -57 11 -143 26 -193 34 -49 8 -168 27 -263 43 -198 32 -159
42 -299 -80 -78 -68 -250 -207 -397 -321 -43 -33 -127 -99 -186 -147 -60 -49
-113 -88 -118 -88 -5 0 -9 -7 -9 -15 0 -8 3 -15 6 -15 3 0 100 29 216 65 508
157 678 192 983 202 336 11 518 -37 699 -184 77 -63 157 -185 211 -323 50
-126 53 -114 -32 -149 -111 -46 -305 -99 -430 -118 -223 -34 -600 -19 -826 33
-35 8 -96 21 -135 29 -39 8 -125 30 -190 49 -182 52 -468 137 -475 141 -4 3
-69 20 -144 39 -172 43 -170 44 -371 -91 -321 -214 -621 -394 -678 -407 -15
-4 -25 -11 -22 -16 11 -19 91 -21 165 -5 167 36 334 66 505 90 166 24 200 26
445 23 259 -4 268 -5 384 -36 241 -64 391 -165 504 -340 51 -79 144 -366 124
-383 -16 -15 -129 -50 -224 -70 -84 -18 -141 -23 -308 -25 -244 -2 -424 20
-624 76 -39 11 -96 27 -126 36 -122 35 -351 122 -665 256 -143 60 -298 126
-344 145 -129 54 -135 53 -449 -112 -218 -113 -518 -259 -645 -313 -39 -17
-24 -32 26 -27 396 46 595 60 817 59 427 -1 725 -77 944 -239 167 -123 270
-336 283 -584 l6 -108 -79 -14 c-120 -21 -471 -19 -599 4 -366 66 -708 208
-1235 510 -259 148 -235 135 -345 186 -107 49 -179 68 -198 53 -18 -15 -239
-114 -382 -172 -145 -58 -190 -75 -413 -155 -95 -34 -172 -66 -170 -71 2 -5
189 -9 443 -10 458 -1 485 -2 726 -49 182 -36 290 -69 404 -124 124 -60 192
-107 275 -192 80 -82 123 -153 162 -266 27 -77 31 -105 36 -234 2 -80 2 -162
-2 -182 l-7 -35 -87 -8 c-187 -15 -478 26 -706 101 -168 55 -393 160 -586 273
-145 85 -410 262 -417 277 -2 8 -34 31 -70 51 -36 20 -134 82 -217 138 -83 55
-178 114 -210 130 -52 26 -62 28 -95 18 -20 -6 -142 -47 -271 -90 -129 -44
-273 -92 -320 -107 -85 -27 -180 -91 -167 -112 4 -6 49 -13 101 -16 52 -4 172
-22 268 -41 95 -19 209 -36 253 -39 151 -10 482 -104 633 -181 311 -157 461
-353 494 -644 11 -105 -1 -257 -28 -334 l-16 -48 -56 0 c-240 2 -481 60 -745
180 -253 115 -467 255 -805 527 -441 355 -600 473 -636 473 -22 0 -249 -71
-500 -156 -308 -105 -381 -128 -458 -149 -132 -35 -96 -43 277 -60 165 -8 347
-21 405 -29 369 -54 646 -153 842 -301 214 -161 327 -407 315 -680 -4 -92 -33
-302 -42 -313 -2 -2 -50 2 -107 9 -254 29 -629 200 -976 444 -201 141 -673
496 -678 510 -3 8 -78 62 -167 122 -89 59 -167 115 -174 123 -8 11 -29 14 -75
13 -70 -2 -79 -5 -618 -219 -366 -145 -815 -338 -825 -355 -7 -11 70 -49 530
-264 493 -229 944 -458 981 -496 l28 -29 -25 0 c-14 0 -30 -9 -37 -21 -11 -17
-20 -20 -50 -15 -20 4 -164 10 -318 14 l-281 7 -419 212 c-506 255 -806 393
-855 393 -26 0 -369 -164 -833 -398 l-408 -207 -230 -2 c-127 -1 -267 -7 -312
-13 -65 -10 -87 -10 -105 0 l-23 12 33 21 c108 66 299 172 469 260 375 195
912 456 926 450 8 -3 14 0 14 6 0 6 18 21 40 33 22 13 40 26 40 29 0 6 -20 15
-280 128 -227 98 -478 201 -715 293 -99 39 -232 90 -295 115 -139 54 -221 62
-261 26 -13 -12 -89 -65 -169 -119 -80 -53 -158 -112 -175 -130 -33 -35 -594
-453 -740 -551 -363 -242 -740 -396 -974 -398 -42 0 -44 2 -48 30 -2 17 -10
76 -18 133 -20 139 -19 249 5 361 24 113 89 250 160 338 106 131 329 265 560
336 247 77 432 104 825 122 373 17 409 25 278 60 -38 10 -140 42 -228 72 -267
91 -565 188 -652 213 -82 23 -82 23 -119 4 -51 -27 -267 -191 -484 -367 -419
-342 -614 -474 -883 -602 -253 -120 -483 -183 -704 -192 l-132 -6 -22 74 c-30
97 -32 317 -5 419 67 245 222 414 501 546 167 78 462 161 610 171 44 3 158 20
253 39 96 19 216 37 268 41 52 3 97 10 100 15 4 6 -13 27 -36 48 -30 27 -65
45 -128 65 -48 15 -193 63 -322 107 -338 114 -299 106 -363 75 -30 -15 -126
-75 -213 -133 -88 -58 -187 -121 -221 -140 -33 -19 -63 -41 -66 -48 -3 -8 -77
-61 -164 -118 -430 -284 -719 -416 -1088 -499 -130 -29 -155 -32 -337 -33
-108 0 -200 3 -205 7 -13 14 -16 244 -3 331 36 245 186 438 441 566 126 64
244 100 450 139 221 42 256 44 704 45 242 1 442 5 445 10 3 4 -56 30 -132 56
-309 109 -578 217 -771 310 -85 40 -90 42 -134 31 -25 -7 -80 -30 -124 -51
-43 -22 -83 -40 -88 -40 -6 0 -54 -27 -108 -59 -266 -160 -646 -358 -838 -436
-169 -69 -322 -115 -510 -153 -115 -23 -155 -26 -345 -26 -144 -1 -241 4 -294
13 l-79 14 6 108 c9 178 72 355 171 480 90 115 289 228 488 279 324 82 656 86
1290 15 85 -9 136 -11 142 -5 12 12 14 11 -69 45 -98 40 -421 198 -666 327
-178 93 -213 108 -254 108 -48 0 -99 -18 -360 -130 -553 -237 -795 -322 -1075
-380 -156 -31 -399 -45 -578 -31 -212 16 -419 72 -408 110 3 9 10 36 15 61 17
76 68 216 101 278 67 126 213 253 361 313 37 15 116 40 176 56 107 28 111 28
408 28 330 -1 389 -7 806 -92 134 -27 188 -34 223 -29 53 8 57 27 9 37 -33 7
-103 44 -238 130 -49 31 -139 87 -200 124 -60 38 -171 109 -245 158 -184 124
-186 124 -352 82 -73 -19 -191 -52 -263 -74 -330 -99 -390 -116 -545 -152
-257 -60 -430 -81 -665 -81 -261 0 -395 21 -655 105 -39 13 -139 55 -148 62
-4 3 40 118 73 190 80 174 224 311 396 376 239 91 678 76 1094 -38 240 -66
269 -74 437 -129 92 -30 173 -54 179 -54 7 0 9 9 5 24 -5 20 1 30 34 56 44 35
103 114 93 124 -4 3 -1 6 5 6 7 0 12 5 12 10 0 21 -19 9 -28 -19 -13 -36 -69
-99 -121 -135 l-39 -27 -155 123 c-85 68 -237 189 -338 269 -101 81 -215 174
-253 208 -38 33 -77 61 -87 61 -9 0 -86 -11 -171 -25 -84 -14 -184 -30 -223
-36 -38 -6 -127 -22 -197 -35 -234 -44 -394 -58 -683 -58 -209 -1 -297 3 -390
17 -139 20 -359 80 -466 127 -84 37 -240 117 -253 130 -17 17 72 171 151 260
74 83 256 202 284 185 5 -4 9 -2 9 3 0 37 319 64 499 43 90 -11 227 -37 261
-49 8 -3 18 -6 23 -7 4 -2 10 -4 15 -5 4 -1 10 -2 13 -2 19 2 330 -106 414
-144 33 -15 66 -29 73 -30 8 -1 37 -13 65 -27 195 -92 320 -147 325 -142 10
10 -30 54 -153 170 -75 71 -155 151 -177 178 l-42 49 90 -53 c71 -43 122 -87
246 -211 100 -100 165 -158 178 -158 11 0 20 5 20 10 0 6 -8 10 -18 10 -18 0
-65 41 -128 111 -59 65 -194 189 -219 201 -14 6 -25 15 -25 19 0 5 -34 25 -75
46 -41 20 -75 41 -75 45 0 5 -4 7 -10 3 -5 -3 -17 6 -26 20 -9 14 -22 25 -29
25 -17 0 -211 217 -207 231 1 6 -2 8 -7 5 -5 -3 -25 12 -44 33 l-35 39 -104 4
c-57 3 -245 -1 -418 -8 -287 -11 -714 -6 -761 10 -8 3 -38 8 -67 10 -29 3 -63
8 -75 11 -12 3 -33 7 -47 9 -108 18 -334 92 -456 151 -175 83 -376 215 -389
255 -4 13 5 35 24 64 81 118 219 221 368 277 81 30 99 33 235 37 144 4 294
-14 324 -39 6 -5 13 -7 15 -4 17 17 366 -121 539 -212 206 -110 411 -233 404
-244 -3 -5 1 -6 9 -3 8 3 40 -11 71 -31 57 -36 106 -59 106 -49 0 7 -40 58
-69 89 -42 45 -276 343 -428 546 -142 189 -167 218 -204 233 -53 21 -159 35
-270 36 -47 0 -110 4 -140 10 -30 5 -110 12 -179 14 -186 7 -479 60 -685 125
-330 104 -641 291 -858 519 l-39 40 69 54 c114 91 209 146 305 177 91 30 346
30 463 0 74 -19 259 -91 335 -131 199 -106 332 -196 624 -422 104 -80 193
-146 197 -146 5 0 9 4 9 9 0 5 -71 127 -158 272 -88 145 -181 307 -208 359
-44 84 -50 101 -48 150 l2 55 -7 -50 -6 -50 -49 87 c-49 86 -49 86 -105 102
-80 22 -214 53 -381 87 -152 32 -414 98 -490 126 -334 119 -508 208 -723 372
-172 130 -367 354 -367 421 0 20 184 107 294 140 103 30 271 28 394 -6 136
-37 306 -112 392 -173 250 -178 482 -384 673 -596 44 -49 89 -96 99 -103 16
-12 16 -9 -1 40 -10 29 -60 145 -110 258 -90 201 -178 412 -250 600 l-37 94
-79 33 c-72 30 -80 31 -96 17 -16 -15 -17 -14 -12 5 3 12 4 21 1 21 -9 0 -383
132 -468 165 -572 225 -920 507 -1168 947 l-32 56 67 26 c208 78 372 91 545
43 122 -34 171 -55 272 -117 218 -132 475 -394 727 -740 90 -125 133 -170 115
-124 -3 8 -20 68 -36 132 -17 64 -42 151 -55 192 -13 41 -42 143 -66 225 -23
83 -50 179 -61 215 -10 36 -23 87 -29 114 -25 132 4 107 -307 265 -415 210
-585 312 -767 458 -218 174 -434 442 -523 647 -38 87 -65 177 -56 186 12 11
113 30 200 36 176 13 371 -38 546 -142 158 -94 389 -350 555 -614 70 -112 162
-268 192 -327 44 -87 46 -48 9 182 -11 72 -31 186 -43 255 -26 140 -50 296
-68 445 l-13 100 -136 90 c-75 50 -187 123 -250 163 -62 40 -145 98 -185 130
-40 31 -104 79 -142 106 -94 65 -255 218 -337 319 -194 242 -339 529 -360 718
l-7 59 101 0 c228 0 451 -79 629 -223 171 -138 386 -459 521 -777 22 -52 47
-108 56 -125 9 -16 21 -54 27 -83 6 -30 15 -50 19 -46 11 12 0 654 -12 654 -4
0 -9 -28 -10 -62 -1 -35 -4 51 -7 190 l-6 254 -85 81 c-47 45 -132 119 -190
163 -201 155 -415 359 -545 519 -210 259 -359 597 -381 864 l-7 83 64 -7 c173
-20 371 -95 496 -189 84 -64 201 -191 267 -289 87 -132 277 -549 324 -714 7
-22 20 -58 29 -80 l17 -38 8 45 c5 25 11 250 14 501 l4 455 -32 50 c-17 27
-115 132 -218 234 -244 242 -350 372 -488 602 -92 152 -160 322 -186 465 -8
43 -23 123 -34 178 -11 55 -23 131 -26 168 l-7 68 63 -7 c172 -18 367 -123
514 -275 189 -197 303 -455 404 -914 39 -175 39 -175 55 -175 9 0 19 42 33
143 45 317 74 515 82 567 30 195 39 274 33 284 -4 6 -64 79 -133 161 -339 404
-452 574 -530 797 -15 43 -32 83 -38 90 -17 21 -69 236 -84 343 -13 102 -17
386 -6 417 7 16 12 15 75 -6 139 -47 230 -104 342 -210 118 -114 206 -254 246
-391 9 -33 21 -65 25 -70 5 -6 25 -65 44 -132 36 -121 78 -352 90 -493 10
-114 18 -170 25 -170 9 0 72 263 97 404 10 57 65 266 90 344 14 42 27 88 29
102 2 14 8 45 14 70 19 82 16 91 -86 242 -53 79 -130 193 -171 253 -155 229
-273 508 -314 740 -28 161 -30 443 -3 592 10 56 21 107 26 114 10 16 67 -8
164 -72 145 -95 281 -264 342 -429 70 -188 109 -377 118 -570 11 -249 27 -384
46 -395 4 -3 16 21 25 52 9 32 46 145 80 252 35 107 64 200 64 208 0 7 4 13 8
13 5 0 18 30 30 68 11 37 36 110 55 162 19 52 38 118 42 146 6 48 3 56 -46
150 -118 225 -149 289 -149 306 0 10 -5 18 -11 18 -12 0 -95 174 -133 278
-106 297 -122 658 -42 974 19 75 38 144 43 152 8 14 17 11 72 -24 206 -134
330 -338 393 -650 19 -93 22 -143 23 -430 2 -367 2 -360 14 -360 5 0 44 82 86
183 92 213 226 511 279 616 27 53 36 81 31 99 -9 36 -64 175 -125 317 -97 224
-170 471 -170 576 0 21 -4 41 -10 44 -24 15 -8 312 26 485 14 70 115 379 134
410 7 11 21 3 66 -35 142 -122 261 -324 288 -490 16 -102 28 -282 23 -373 -12
-241 -30 -422 -43 -422 -9 0 -14 -27 -16 -95 -2 -52 0 -95 5 -95 4 0 18 25 32
55 13 31 34 69 45 85 12 17 43 74 69 127 60 122 181 332 265 462 89 138 90
144 27 354 -29 95 -63 206 -77 247 -32 98 -74 338 -81 466 -4 78 -1 132 17
240 13 76 26 144 30 149 4 6 13 37 20 70 7 33 25 94 40 135 41 110 138 300
157 307 37 15 155 -167 210 -324 71 -203 65 -495 -18 -908 -11 -55 -24 -104
-30 -109 -11 -12 -12 -116 0 -116 9 0 72 91 367 528 l184 273 -11 77 c-6 42
-12 79 -14 82 -10 17 -65 286 -70 350 -4 41 -14 100 -21 130 -18 70 -18 253 0
356 25 141 86 335 142 452 58 123 175 309 199 318 25 10 45 -16 95 -121 83
-172 94 -229 94 -450 -1 -204 -16 -302 -69 -465 -13 -41 -25 -102 -27 -135
l-3 -60 40 3 c51 5 77 21 106 69 12 21 52 83 88 137 36 55 69 104 73 110 3 6
18 40 31 76 14 36 38 92 53 125 48 101 297 464 390 568 211 236 508 444 819
572 168 70 357 129 363 115 2 -4 -19 -54 -46 -111z m5688 -1940 c-407 -126
-535 -175 -830 -320 -423 -208 -801 -490 -1098 -818 -230 -255 -461 -620 -577
-911 -14 -36 -30 -74 -35 -85 -43 -93 -119 -348 -159 -530 -75 -348 -96 -559
-96 -985 1 -471 27 -714 131 -1229 54 -266 61 -289 164 -576 57 -159 212 -449
353 -660 226 -338 557 -683 909 -947 119 -90 347 -245 413 -282 17 -9 37 -21
45 -26 8 -5 75 -43 149 -84 157 -88 285 -146 436 -196 103 -35 176 -56 454
-130 347 -93 665 -82 1334 48 27 6 47 6 47 1 0 -5 -60 -69 -132 -142 -175
-174 -333 -281 -492 -332 -23 -7 -86 -30 -141 -50 -267 -98 -504 -135 -865
-135 -236 1 -400 12 -705 50 -200 25 -205 10 -25 -83 359 -184 747 -289 1390
-377 377 -51 545 -46 865 27 68 15 279 74 320 88 23 8 -173 -189 -280 -282
-38 -33 -149 -128 -245 -210 -366 -313 -514 -491 -658 -793 -170 -356 -186
-709 -48 -1003 48 -101 438 -627 671 -906 137 -164 206 -253 297 -386 143
-209 295 -495 368 -695 23 -63 46 -124 50 -135 27 -68 66 -219 90 -349 19
-106 37 -285 27 -276 -3 3 -38 59 -78 125 -99 164 -192 286 -312 408 -160 163
-251 233 -459 356 -241 143 -591 265 -1078 377 -71 16 -67 15 -361 79 -214 47
-315 72 -609 148 -296 78 -457 128 -775 242 -71 26 -143 51 -160 57 -16 5 -39
14 -50 18 -30 13 -176 60 -186 60 -44 0 67 -85 319 -244 160 -101 507 -275
722 -362 47 -19 94 -39 105 -44 69 -32 444 -160 615 -210 316 -91 408 -122
625 -207 147 -57 450 -210 590 -296 212 -132 341 -232 508 -396 205 -201 334
-421 416 -711 57 -201 66 -279 65 -565 0 -220 -3 -278 -22 -380 -48 -270 -98
-433 -221 -718 -64 -149 -126 -266 -236 -446 -126 -205 -324 -455 -447 -563
-119 -104 -291 -204 -458 -266 -372 -137 -909 -156 -1299 -46 -141 40 -275 88
-386 138 -166 75 -195 90 -183 96 7 4 47 13 88 19 686 114 1307 374 1850 775
273 201 593 522 730 731 64 99 160 294 194 397 59 181 79 403 52 573 -21 130
-36 176 -106 320 -272 565 -920 995 -1859 1236 -154 40 -167 43 -226 54 -170
33 -519 120 -710 177 -233 68 -668 220 -770 268 -46 21 -114 50 -119 50 -9 0
-139 61 -351 165 -337 165 -601 320 -915 538 -173 120 -206 144 -378 281 -137
107 -420 362 -547 491 -75 76 -360 390 -400 441 -16 21 -48 59 -70 84 -22 25
-49 59 -60 75 -11 15 -35 45 -52 65 -18 21 -33 41 -33 45 0 4 -19 31 -43 59
-38 45 -60 76 -117 162 -8 12 -37 55 -65 96 -27 40 -52 78 -55 83 -3 6 -27 44
-55 85 -57 87 -82 128 -91 153 -3 9 -10 17 -15 17 -5 0 -9 5 -9 11 0 6 -8 23
-19 37 -10 15 -22 38 -26 52 -4 14 -11 27 -15 30 -11 7 -83 145 -213 405 -116
233 -137 276 -177 375 -12 30 -28 69 -35 85 -15 35 -45 134 -45 149 0 6 66
-55 148 -134 288 -282 338 -330 346 -330 4 0 66 -55 137 -122 72 -68 135 -125
142 -127 7 -2 37 -27 67 -55 30 -28 75 -67 100 -86 44 -35 123 -102 172 -146
14 -13 29 -24 33 -24 8 0 129 -102 133 -112 2 -5 8 -8 13 -8 5 0 38 -24 73
-52 64 -53 171 -133 316 -237 41 -29 77 -57 78 -62 2 -5 8 -9 14 -9 9 0 142
-91 175 -120 7 -5 14 -10 17 -10 2 0 79 -49 169 -110 91 -60 168 -110 172
-110 3 0 21 -11 39 -25 18 -14 35 -25 38 -25 3 0 54 -30 114 -66 189 -116 458
-257 719 -379 227 -106 560 -224 578 -206 16 16 6 24 -228 161 -296 173 -536
328 -773 499 -180 130 -230 167 -302 226 -34 28 -91 75 -128 105 -37 30 -76
61 -86 70 -11 8 -63 53 -115 100 -53 47 -114 101 -136 120 -72 64 -408 404
-505 512 -121 135 -240 275 -240 284 0 3 -27 37 -60 74 -33 37 -60 72 -60 78
0 6 -3 12 -7 14 -11 4 -83 95 -83 103 0 3 -7 13 -16 22 -14 14 -105 143 -129
182 -5 9 -21 32 -35 51 -14 19 -30 44 -36 55 -24 46 -40 72 -65 105 -14 19
-28 40 -30 45 -2 6 -30 54 -61 107 -32 53 -58 102 -58 107 0 6 -4 11 -8 11 -9
0 -63 104 -61 116 0 4 -3 10 -8 13 -18 14 -143 262 -143 286 0 8 -4 15 -10 15
-5 0 -10 4 -10 9 0 5 -16 44 -36 88 -59 129 -64 141 -64 151 0 6 -6 23 -14 39
-8 15 -24 53 -36 83 -12 30 -25 64 -30 75 -5 11 -20 54 -34 95 -13 41 -30 89
-35 105 -24 66 -71 215 -74 232 -1 10 -5 23 -9 28 -17 28 -120 472 -141 610
-3 17 -12 74 -21 127 -82 502 -98 1146 -40 1713 14 146 63 517 69 523 1 1 5
-116 8 -260 8 -399 33 -658 103 -1060 37 -213 165 -688 204 -760 6 -10 10 -23
10 -29 0 -12 22 -66 46 -112 8 -16 14 -33 14 -39 0 -28 178 -386 253 -509 34
-55 69 -112 77 -127 8 -15 26 -43 40 -62 14 -19 30 -42 35 -52 10 -17 84 -122
133 -189 185 -252 629 -699 693 -699 29 0 44 -36 -143 349 -65 134 -118 246
-118 248 0 4 -17 42 -79 176 -22 48 -44 99 -47 112 -3 14 -10 28 -15 31 -5 3
-9 13 -9 22 0 9 -7 31 -16 47 -19 37 -124 350 -124 370 0 9 -4 23 -9 33 -5 9
-19 53 -30 97 -12 44 -26 94 -31 110 -4 17 -18 71 -30 120 -11 50 -25 106 -30
126 -21 77 -76 404 -85 499 -4 41 -9 86 -12 100 -13 72 -35 429 -37 605 -1
123 22 515 38 620 3 22 8 60 11 85 14 120 55 329 101 515 8 33 19 83 25 110 6
28 14 55 19 60 4 6 11 27 14 49 4 21 11 46 16 55 5 9 18 48 30 86 11 39 27 86
35 105 31 80 57 146 65 165 34 75 50 115 50 120 0 13 127 273 210 430 47 88
168 296 210 361 45 68 112 162 130 181 11 12 20 25 20 28 0 8 73 99 83 103 4
2 7 8 7 13 0 7 72 103 179 237 14 18 62 74 107 125 44 51 89 103 100 117 25
33 192 200 224 224 14 11 53 44 88 74 34 30 62 51 62 47 0 -15 -108 -221 -182
-345 -24 -41 -47 -82 -51 -90 -4 -8 -11 -22 -17 -30 -88 -130 -304 -594 -403
-865 -80 -220 -158 -502 -191 -695 -9 -52 -21 -121 -27 -152 -55 -318 -52
-854 7 -1178 20 -111 68 -281 104 -375 96 -247 181 -415 212 -415 22 0 23 21
3 110 -91 397 -120 903 -75 1280 20 168 51 353 70 425 6 22 15 56 20 75 35
134 82 288 99 325 5 11 19 48 31 83 13 34 27 65 31 68 5 3 9 12 9 20 0 18 114
250 153 311 15 24 27 45 27 49 0 20 225 342 314 449 23 28 55 68 71 90 42 58
355 368 455 451 82 68 242 192 290 224 12 8 42 30 66 48 23 17 45 32 47 32 3
0 31 18 63 39 330 219 804 429 1229 544 11 3 52 14 90 25 71 20 315 72 435 92
59 10 107 18 315 49 167 25 218 25 135 0z m1633 -1214 c124 -44 213 -101 317
-205 75 -74 105 -113 138 -177 163 -316 79 -688 -204 -901 -84 -63 -204 -124
-304 -153 -67 -20 -103 -23 -347 -27 l-273 -4 0 -366 c0 -326 -2 -367 -17
-384 -14 -16 -35 -18 -201 -18 -159 0 -188 2 -204 17 -17 15 -18 63 -18 1123
0 609 3 1110 7 1113 3 4 237 7 520 7 l513 0 73 -25z m1152 -197 c37 -117 101
-312 140 -433 131 -401 215 -685 270 -912 16 -68 31 -90 39 -60 2 6 11 48 21
92 32 151 114 470 200 785 48 173 91 329 95 345 23 87 88 321 101 363 l11 32
222 0 223 0 18 -62 c9 -35 23 -83 31 -108 7 -25 22 -79 33 -120 10 -41 58
-214 104 -385 139 -503 212 -791 236 -924 3 -19 11 -36 16 -38 6 -2 33 84 61
194 47 181 103 378 138 486 8 23 78 238 156 477 77 239 145 445 150 458 10 22
11 22 230 22 171 0 222 -3 226 -13 2 -7 -32 -118 -76 -247 -44 -129 -115 -336
-156 -460 -41 -124 -79 -234 -84 -245 -10 -23 -102 -290 -335 -975 -42 -124
-81 -237 -87 -252 l-10 -28 -219 0 -218 0 -11 38 c-6 20 -35 129 -66 242 -30
113 -68 252 -84 310 -81 291 -164 607 -211 800 -28 118 -53 221 -55 229 -8 27
-21 -4 -44 -104 -25 -114 -87 -361 -130 -515 -33 -118 -217 -804 -247 -920
l-20 -75 -225 -3 -226 -2 -5 22 c-2 13 -48 149 -102 303 -53 154 -121 354
-152 445 -30 91 -71 208 -90 260 -32 86 -78 219 -324 936 -43 127 -79 236 -79
243 0 8 65 11 233 11 l233 0 69 -212z m-469 -268 c41 -118 88 -251 104 -295
15 -44 77 -217 135 -385 l107 -305 -6 -150 c-7 -187 -19 -251 -61 -340 -56
-117 -162 -206 -316 -263 l-74 -27 -404 2 c-222 1 -406 5 -409 8 -4 3 -2 9 4
13 5 4 72 77 148 162 77 85 143 159 148 165 6 6 12 5 18 -5 14 -23 247 -27
321 -6 66 19 122 63 152 119 l22 42 3 760 c1 418 5 767 8 775 5 10 10 3 16
-20 5 -19 43 -132 84 -250z m-1098 -2035 c96 -23 211 -71 272 -115 72 -51 98
-64 200 -95 157 -49 312 -137 604 -343 172 -122 193 -131 416 -162 421 -59
548 -97 705 -213 88 -64 293 -254 324 -299 132 -195 194 -267 312 -363 211
-170 311 -219 488 -237 58 -5 281 -11 494 -13 214 -2 391 -5 393 -8 6 -6 -146
-113 -201 -140 -112 -56 -184 -85 -452 -182 -56 -21 -276 -65 -395 -80 -27 -4
-48 -10 -48 -15 0 -10 78 -75 143 -119 110 -75 316 -145 487 -167 58 -7 150
-19 205 -27 l100 -13 -176 -86 c-256 -125 -307 -141 -454 -142 -66 0 -167 1
-225 4 -108 5 -200 -4 -200 -20 0 -20 140 -148 200 -183 76 -44 198 -85 365
-122 148 -33 226 -53 233 -60 3 -2 -1 -7 -9 -10 -8 -2 -68 -25 -134 -51 -183
-69 -316 -109 -416 -123 -38 -5 -103 -5 -159 0 -307 29 -515 133 -752 377
l-88 89 0 -306 c0 -370 10 -486 90 -1066 60 -436 61 -441 50 -555 -19 -206
-98 -506 -197 -750 -75 -185 -361 -711 -548 -1010 -51 -82 -163 -285 -226
-410 -264 -527 -383 -1088 -402 -1890 -1 -65 -5 -89 -11 -75 -5 11 -29 72 -53
135 -81 206 -188 429 -288 595 -131 218 -181 285 -513 693 -160 198 -220 284
-277 405 -66 138 -85 224 -85 388 0 113 4 153 25 233 67 258 182 431 640 961
67 77 202 237 300 355 99 118 184 220 190 225 14 12 105 144 105 151 0 3 13
24 28 47 94 138 173 353 193 523 11 98 6 198 -11 192 -4 -2 -63 -75 -130 -163
-204 -266 -276 -331 -474 -426 -153 -73 -337 -134 -491 -164 -139 -27 -363
-48 -450 -43 l-60 3 90 39 c379 163 547 271 654 420 87 122 144 225 211 381 4
11 16 45 26 75 9 30 20 64 25 75 5 11 19 65 33 120 30 121 51 375 66 780 6
160 15 333 21 385 14 135 12 352 -6 495 -20 166 -62 324 -130 496 -31 78 -77
195 -101 258 -25 64 -64 148 -88 187 -24 39 -54 93 -66 120 -25 54 -173 471
-195 548 -33 116 -170 256 -394 403 -151 99 -154 102 -120 106 60 9 272 -3
337 -18z m2806 -5069 c25 -52 46 -97 46 -101 0 -4 6 -21 14 -38 112 -257 153
-696 101 -1067 -31 -211 -99 -490 -155 -625 -4 -11 -22 -58 -40 -104 -48 -127
-111 -261 -232 -491 -65 -124 -248 -451 -269 -481 -10 -15 -23 -37 -29 -50 -5
-13 -14 -31 -20 -39 -46 -71 -244 -461 -295 -580 -15 -36 -33 -78 -40 -95 -12
-27 -92 -265 -114 -340 -28 -90 -66 -333 -91 -565 -56 -530 -48 -1091 25
-1965 27 -311 42 -434 75 -595 120 -586 435 -1136 849 -1481 149 -124 261
-191 456 -272 50 -21 98 -42 107 -47 10 -6 23 -10 29 -10 6 0 25 -7 42 -15 18
-8 49 -20 69 -27 l38 -13 -72 -85 c-72 -85 -263 -280 -348 -356 -272 -240
-639 -440 -950 -518 -214 -53 -482 -75 -701 -58 -163 13 -254 29 -419 74 -493
134 -963 467 -1244 882 l-47 69 42 18 c22 11 45 19 49 19 5 0 43 16 87 36 402
184 621 349 837 629 366 476 591 1086 645 1755 26 315 40 834 51 1840 10 924
20 1074 96 1458 43 217 59 285 124 502 116 388 288 761 520 1130 262 415 444
811 588 1275 55 178 78 257 99 347 10 43 21 78 24 78 4 0 27 -42 53 -94z
m-2849 -5231 c71 -119 116 -220 152 -332 25 -78 28 -103 28 -223 0 -193 -40
-364 -131 -556 -127 -268 -399 -576 -674 -761 -109 -73 -191 -123 -265 -162
-70 -36 -95 -43 -180 -52 -316 -34 -695 41 -1019 202 -152 76 -418 251 -403
266 3 3 48 -1 99 -8 61 -9 213 -13 443 -13 287 -1 369 2 455 17 305 51 467
101 709 219 365 179 610 395 724 640 62 133 72 183 71 368 0 158 -16 276 -53
405 -15 50 -22 85 -17 85 3 0 30 -43 61 -95z m3040 -12 c-33 -132 -49 -260
-49 -403 -1 -153 5 -192 44 -275 5 -11 19 -42 31 -70 33 -76 125 -210 198
-288 200 -212 516 -386 926 -510 301 -91 672 -112 1228 -71 91 7 106 0 59 -27
-15 -9 -79 -48 -142 -86 -392 -238 -762 -353 -1134 -353 -226 0 -300 30 -576
234 -529 391 -800 826 -800 1284 0 211 55 383 172 540 43 58 53 64 43 25z
m-10275 -4623 c0 -5 -2 -10 -4 -10 -3 0 -8 5 -11 10 -3 6 -1 10 4 10 6 0 11
-4 11 -10z m1953 -6513 c75 -149 197 -389 270 -532 73 -143 222 -435 331 -650
109 -214 245 -480 301 -590 104 -202 1832 -3594 2147 -4215 94 -184 197 -386
230 -447 l59 -113 -634 0 -633 0 -250 505 -249 504 -1751 1 -1751 0 -248 -505
-249 -505 -628 0 c-345 0 -628 3 -628 6 0 6 264 525 735 1449 67 132 704 1383
1415 2780 711 1397 1299 2550 1307 2563 10 16 23 22 51 22 l37 0 138 -273z
m11879 -1457 c483 -949 989 -1943 1125 -2210 135 -267 283 -557 328 -645 45
-88 167 -326 270 -530 104 -203 341 -669 527 -1034 186 -365 338 -665 338
-667 0 -2 -281 -4 -625 -4 l-625 0 -254 508 -253 507 -1747 3 -1746 2 -253
-509 -252 -510 -629 0 c-594 -1 -628 0 -622 17 7 16 877 1728 1036 2037 43 83
499 978 1015 1990 1052 2065 1175 2307 1285 2520 43 83 89 174 104 203 26 51
29 53 63 50 l36 -3 879 -1725z m4355 1099 c357 -337 691 -653 743 -703 52 -50
171 -163 265 -251 93 -88 217 -205 275 -260 58 -56 155 -148 215 -205 233
-221 255 -242 248 -253 -3 -6 -1 -7 6 -3 12 8 51 -28 432 -394 32 -30 55 -58
53 -62 -3 -5 -2 -7 3 -6 13 4 124 -93 117 -103 -3 -5 0 -8 8 -7 7 2 12 -3 10
-10 -1 -8 2 -11 7 -8 9 6 91 -77 91 -93 0 -5 8 -8 18 -7 9 0 16 -5 14 -12 -1
-8 2 -11 7 -8 5 3 14 0 20 -8 7 -8 8 -16 4 -18 -4 -3 -3 -3 4 -2 15 4 36 -22
28 -35 -3 -6 0 -8 9 -5 9 3 23 -6 37 -25 12 -17 27 -27 32 -24 6 4 8 0 4 -11
-4 -10 -3 -15 4 -11 5 4 47 -29 92 -73 45 -43 123 -118 173 -165 50 -47 89
-89 86 -92 -3 -3 1 -5 8 -5 7 0 54 -40 104 -88 91 -88 205 -196 303 -286 29
-27 50 -53 46 -59 -3 -5 -2 -7 3 -4 11 7 38 -17 507 -463 43 -41 83 -76 88
-78 5 -2 9 865 9 2172 l0 2176 580 0 580 0 0 -3405 0 -3405 -27 0 c-28 0 -98
62 -418 369 -55 53 -134 128 -175 166 -137 128 -423 398 -525 495 -55 53 -136
130 -180 171 -44 41 -127 120 -185 175 -58 55 -154 147 -215 204 -60 57 -144
136 -185 175 -41 39 -151 143 -245 230 -303 283 -296 276 -282 294 10 14 10
14 -3 4 -12 -9 -27 -1 -80 48 -36 33 -64 64 -63 69 2 6 -3 9 -10 7 -6 -1 -11
4 -9 11 1 8 -2 11 -7 8 -5 -4 -13 -1 -18 6 -4 7 -30 33 -58 58 -27 25 -49 49
-47 53 1 5 -1 6 -6 3 -11 -7 -143 129 -134 139 4 5 1 5 -6 1 -7 -5 -35 14 -72
50 -51 49 -58 59 -47 73 10 14 10 14 -4 4 -16 -13 -79 41 -318 275 -41 39 -75
72 -77 72 -2 0 -29 25 -61 56 -32 31 -90 86 -130 122 -40 36 -69 70 -66 76 3
6 2 8 -2 3 -11 -9 -56 33 -49 45 3 5 1 7 -4 6 -10 -3 -65 45 -192 166 -47 44
-155 146 -240 226 -85 80 -193 181 -240 226 -47 44 -155 146 -240 227 l-155
146 -3 -2175 -2 -2174 -580 0 -580 0 0 3400 0 3400 30 0 c25 0 120 -85 677
-611z m-12973 349 c41 -84 122 -252 181 -373 59 -121 142 -292 185 -380 160
-330 241 -496 350 -720 62 -126 143 -293 180 -370 37 -77 120 -248 185 -380
64 -132 179 -368 255 -525 76 -157 184 -379 240 -495 158 -324 285 -584 370
-760 43 -88 101 -207 129 -264 l51 -104 195 399 c108 220 604 1236 1104 2259
l908 1860 494 0 c272 0 551 -2 620 -5 l126 -5 -1702 -3405 -1702 -3405 -41 -3
-41 -3 -325 653 c-178 359 -800 1607 -1381 2773 -1189 2383 -1685 3384 -1685
3396 0 5 274 9 616 9 l615 0 73 -152z m-8294 119 c485 -84 829 -215 1170 -442
369 -246 620 -525 801 -890 137 -276 199 -537 199 -840 -1 -310 -62 -568 -199
-840 -369 -726 -1180 -1229 -2121 -1314 -68 -7 -419 -11 -852 -11 l-738 0 0
-1160 0 -1160 -580 0 -580 0 0 3340 0 3341 1403 -4 c1248 -3 1412 -5 1497 -20z
m24535 -7837 c168 -43 311 -144 379 -271 l25 -45 -87 -52 -87 -52 -15 22 c-28
42 -75 91 -112 118 -21 15 -34 31 -30 35 4 5 2 5 -4 2 -7 -4 -36 4 -65 17
-101 46 -271 58 -356 25 -20 -7 -28 -6 -35 3 -6 10 -8 10 -8 -2 -1 -8 -27 -27
-58 -42 -135 -65 -201 -181 -175 -309 4 -22 25 -52 60 -87 58 -58 151 -107
308 -161 50 -17 97 -34 105 -38 8 -3 17 -7 20 -7 36 -7 159 -60 154 -67 -3 -5
2 -6 10 -3 8 3 70 -23 137 -57 148 -77 248 -167 294 -264 54 -113 45 -279 -21
-393 -48 -81 -173 -200 -196 -185 -6 3 -8 2 -5 -4 9 -14 -131 -78 -228 -104
-67 -19 -108 -22 -250 -23 -185 -1 -292 16 -349 56 -16 12 -26 16 -22 9 5 -7
1 -9 -8 -5 -9 3 -16 10 -16 15 0 4 -6 6 -14 3 -7 -3 -20 1 -27 8 -8 7 -21 14
-29 16 -8 2 -24 12 -35 22 -11 10 -33 25 -50 33 -36 18 -122 106 -158 161 -24
36 -25 40 -9 52 9 7 20 10 24 8 5 -3 8 -1 8 4 0 11 100 79 123 84 18 4 79 -70
70 -85 -3 -6 -1 -7 5 -3 7 4 12 2 12 -5 0 -7 3 -10 6 -6 4 3 25 -9 48 -28 52
-42 150 -89 236 -112 88 -23 281 -23 369 1 217 59 339 197 310 351 -8 45 -62
135 -90 151 -8 5 -44 28 -79 51 -35 23 -118 63 -185 90 -66 26 -122 51 -123
55 -2 5 -7 6 -12 3 -8 -5 -152 45 -262 91 -94 39 -200 103 -192 116 4 7 2 8
-4 4 -18 -11 -96 68 -130 132 -35 65 -47 119 -45 202 1 64 20 143 33 135 4 -3
6 4 3 15 -3 12 0 20 6 20 7 0 9 5 6 10 -3 6 -2 10 3 10 5 0 15 13 22 29 6 16
23 39 36 52 21 20 27 21 35 9 9 -12 10 -11 4 5 -4 14 4 28 34 55 51 46 186
113 227 114 18 1 30 4 28 8 -4 6 67 23 136 32 66 8 218 -4 295 -24z m-5736 0
c329 -67 614 -276 751 -550 135 -270 136 -559 3 -825 -144 -288 -451 -504
-797 -560 -648 -105 -1235 309 -1292 911 -12 136 29 331 102 475 140 280 454
503 784 558 106 17 344 13 449 -9z m-19629 -636 c0 -720 1 -713 -77 -872 -76
-155 -216 -289 -387 -367 -247 -114 -573 -108 -819 16 -66 34 -67 23 12 144
25 39 46 72 48 74 1 1 33 -13 72 -32 103 -52 200 -71 330 -64 124 5 206 29
299 84 114 68 205 173 255 294 22 54 22 59 25 707 l3 652 119 0 120 0 0 -636z
m1760 531 l0 -105 -507 -2 -508 -3 0 -305 0 -305 438 -3 437 -2 0 -105 0 -105
-440 0 -440 0 0 -335 0 -335 510 0 510 0 0 -110 0 -110 -625 0 -625 0 0 965 0
965 625 0 625 0 0 -105z m745 -595 c126 -385 232 -696 235 -692 4 4 114 266
245 582 131 316 246 595 257 619 16 38 21 42 32 30 7 -8 127 -291 267 -629
l254 -614 187 569 c103 314 207 630 230 703 l42 132 132 0 133 0 -154 -452
c-133 -392 -335 -984 -466 -1368 -21 -63 -39 -115 -39 -117 0 -2 -10 -3 -22
-3 -21 0 -49 60 -273 578 -137 317 -261 603 -275 635 l-26 59 -275 -636 c-234
-542 -277 -636 -294 -636 -18 0 -44 68 -217 578 -372 1090 -458 1344 -458
1353 0 5 57 9 128 9 l127 0 230 -700z m3595 590 l0 -110 -505 0 -505 0 0 -300
0 -300 435 0 435 0 0 -110 0 -110 -435 0 -435 0 0 -335 0 -335 505 0 505 0 0
-110 0 -110 -630 0 -630 0 0 965 0 965 630 0 630 0 0 -110z m690 -745 l0 -855
520 0 520 0 0 -110 0 -110 -645 0 -645 0 0 965 0 965 125 0 125 0 0 -855z
m1650 0 l0 -855 520 0 520 0 0 -110 0 -110 -645 0 -645 0 0 965 0 965 125 0
125 0 0 -855z m2660 745 l0 -110 -505 0 -505 0 0 -300 0 -300 435 0 435 0 0
-110 0 -110 -435 0 -435 0 0 -335 0 -335 505 0 505 0 0 -110 0 -110 -630 0
-630 0 0 965 0 965 630 0 630 0 0 -110z m1285 87 c33 -9 103 -38 155 -63 80
-39 108 -60 180 -133 127 -128 173 -234 174 -396 0 -228 -150 -430 -384 -519
l-58 -21 313 -385 314 -385 -142 -3 c-77 -1 -146 -1 -153 2 -6 2 -143 171
-305 375 l-293 371 -198 0 -198 0 0 -375 0 -375 -125 0 -125 0 0 966 0 965
393 -3 c331 -4 401 -7 452 -21z m1145 -399 c161 -233 297 -427 301 -431 7 -9
25 15 368 508 123 176 228 326 235 333 9 9 47 12 145 10 l132 -3 -375 -552
-376 -553 0 -410 0 -410 -120 0 -120 0 0 406 0 406 -92 137 c-51 75 -218 321
-371 546 -154 226 -281 416 -284 423 -4 9 26 12 129 12 l135 0 293 -422z
m2674 -278 c127 -385 233 -697 236 -693 4 5 121 284 261 620 140 337 259 613
265 613 6 0 21 -24 33 -52 12 -29 126 -305 253 -613 127 -308 235 -564 238
-568 4 -5 80 213 169 485 90 271 193 585 230 698 l68 205 126 3 c74 1 127 -1
127 -7 0 -5 -70 -215 -156 -468 -85 -252 -232 -684 -326 -961 -156 -458 -173
-503 -192 -500 -17 2 -68 112 -295 636 -151 348 -277 629 -281 625 -6 -7 -390
-898 -501 -1160 -35 -83 -47 -103 -64 -103 -18 0 -56 106 -348 963 -180 529
-327 965 -327 970 0 4 57 7 128 7 l127 0 229 -700z m5519 672 c290 -80 489
-298 504 -552 3 -49 0 -110 -6 -142 -35 -167 -187 -337 -361 -403 -38 -15 -70
-29 -70 -31 0 -3 140 -175 310 -384 171 -209 310 -382 310 -385 0 -3 -64 -5
-143 -5 l-142 0 -300 380 -300 379 -200 -2 -200 -2 -3 -377 -2 -378 -115 0
-115 0 0 966 0 966 378 -4 c347 -4 383 -6 455 -26z m1247 -937 l0 -965 -115 0
-115 0 0 965 0 965 115 0 115 0 0 -965z m1140 960 c0 -15 -164 -194 -173 -188
-6 3 -7 2 -4 -4 7 -12 -540 -639 -554 -635 -6 1 -8 -1 -5 -6 3 -5 -15 -33 -39
-61 l-45 -53 63 -66 c147 -154 255 -277 251 -284 -3 -5 -1 -7 4 -6 5 2 47 -37
92 -87 46 -49 132 -142 190 -205 59 -63 150 -162 203 -220 l97 -105 -141 -3
-140 -3 -77 82 c-42 45 -84 90 -92 101 -8 11 -35 41 -60 66 -25 26 -97 103
-160 172 -63 68 -151 163 -195 210 -221 236 -310 334 -310 341 0 5 403 473
451 523 10 11 166 191 301 349 l76 87 133 0 c74 0 134 -2 134 -5z"/>
<path d="M24625 40895 c-66 -7 -199 -16 -295 -20 -96 -4 -191 -11 -210 -16
-19 -5 -72 -9 -117 -9 -48 0 -101 -6 -128 -15 -25 -9 -83 -20 -128 -25 -155
-18 -213 -27 -234 -38 -12 -7 -41 -12 -65 -12 -24 -1 -54 -7 -68 -15 -14 -8
-39 -14 -56 -15 -69 0 -122 -38 -76 -54 9 -3 24 -9 32 -14 43 -25 140 -61 200
-73 24 -5 49 -14 54 -19 6 -6 28 -10 51 -10 22 0 58 -7 80 -15 22 -8 63 -14
90 -15 28 0 68 -5 90 -11 68 -18 173 -29 370 -39 108 -6 212 -17 242 -25 28
-8 85 -15 126 -15 54 0 78 -4 87 -15 11 -13 114 -15 814 -15 548 0 805 3 813
11 6 6 98 14 221 18 116 5 215 12 221 16 6 3 73 9 149 12 75 2 164 11 197 18
88 20 188 36 285 44 47 4 91 10 97 14 6 4 37 11 70 16 56 9 95 20 158 47 17 7
37 15 45 18 8 4 29 15 45 26 17 11 40 24 53 30 38 16 24 44 -23 48 -22 2 -54
9 -72 17 -17 8 -45 15 -63 15 -17 0 -41 6 -53 12 -43 24 -114 38 -227 44 -63
3 -146 12 -183 20 -38 8 -93 14 -123 14 -31 0 -64 5 -75 10 -13 7 -247 12
-687 15 -382 2 -716 9 -782 15 -179 17 -782 20 -925 5z"/>
<path d="M14783 41223 c9 -2 25 -2 35 0 9 3 1 5 -18 5 -19 0 -27 -2 -17 -5z"/>
<path d="M37558 26543 c12 -2 32 -2 45 0 12 2 2 4 -23 4 -25 0 -35 -2 -22 -4z"/>
<path d="M37302 26490 c0 -14 2 -19 5 -12 2 6 2 18 0 25 -3 6 -5 1 -5 -13z"/>
<path d="M37302 26335 c0 -16 2 -22 5 -12 2 9 2 23 0 30 -3 6 -5 -1 -5 -18z"/>
<path d="M36085 26230 c-3 -5 -1 -10 4 -10 6 0 11 5 11 10 0 6 -2 10 -4 10 -3
0 -8 -4 -11 -10z"/>
<path d="M36228 26193 c7 -3 16 -2 19 1 4 3 -2 6 -13 5 -11 0 -14 -3 -6 -6z"/>
<path d="M13968 26183 c7 -3 16 -2 19 1 4 3 -2 6 -13 5 -11 0 -14 -3 -6 -6z"/>
<path d="M14318 26183 c7 -3 16 -2 19 1 4 3 -2 6 -13 5 -11 0 -14 -3 -6 -6z"/>
<path d="M36278 26183 c7 -3 16 -2 19 1 4 3 -2 6 -13 5 -11 0 -14 -3 -6 -6z"/>
<path d="M36628 26183 c7 -3 16 -2 19 1 4 3 -2 6 -13 5 -11 0 -14 -3 -6 -6z"/>
<path d="M14028 26173 c6 -2 18 -2 25 0 6 3 1 5 -13 5 -14 0 -19 -2 -12 -5z"/>
<path d="M14248 26173 c7 -3 16 -2 19 1 4 3 -2 6 -13 5 -11 0 -14 -3 -6 -6z"/>
<path d="M36029 26163 c-13 -16 -12 -17 4 -4 16 13 21 21 13 21 -2 0 -10 -8
-17 -17z"/>
<path d="M36343 26173 c9 -2 23 -2 30 0 6 3 -1 5 -18 5 -16 0 -22 -2 -12 -5z"/>
<path d="M36553 26173 c9 -2 23 -2 30 0 6 3 -1 5 -18 5 -16 0 -22 -2 -12 -5z"/>
<path d="M37150 25770 c-8 -5 -10 -10 -5 -10 6 0 17 5 25 10 8 5 11 10 5 10
-5 0 -17 -5 -25 -10z"/>
<path d="M13998 25613 c6 -2 18 -2 25 0 6 3 1 5 -13 5 -14 0 -19 -2 -12 -5z"/>
<path d="M36590 25610 c19 -13 30 -13 30 0 0 6 -10 10 -22 10 -19 0 -20 -2 -8
-10z"/>
<path d="M14073 25603 c9 -2 23 -2 30 0 6 3 -1 5 -18 5 -16 0 -22 -2 -12 -5z"/>
<path d="M36513 25603 c9 -2 23 -2 30 0 6 3 -1 5 -18 5 -16 0 -22 -2 -12 -5z"/>
<path d="M14208 25593 c23 -2 59 -2 80 0 20 2 1 4 -43 4 -44 0 -61 -2 -37 -4z"/>
<path d="M14610 24870 c0 -5 5 -10 10 -10 6 0 10 5 10 10 0 6 -4 10 -10 10 -5
0 -10 -4 -10 -10z"/>
<path d="M35980 24870 c0 -5 5 -10 10 -10 6 0 10 5 10 10 0 6 -4 10 -10 10 -5
0 -10 -4 -10 -10z"/>
<path d="M14648 24863 c7 -3 16 -2 19 1 4 3 -2 6 -13 5 -11 0 -14 -3 -6 -6z"/>
<path d="M35915 24859 c-16 -5 -48 -12 -70 -15 -22 -3 -44 -9 -49 -15 -13 -12
-3 -11 54 2 48 12 75 17 103 18 9 1 17 6 17 11 0 12 -15 12 -55 -1z"/>
<path d="M14795 24830 c-3 -5 -1 -10 4 -10 6 0 11 5 11 10 0 6 -2 10 -4 10 -3
0 -8 -4 -11 -10z"/>
<path d="M14835 24820 c4 -6 11 -8 16 -5 14 9 11 15 -7 15 -8 0 -12 -5 -9 -10z"/>
<path d="M35740 24820 c0 -5 9 -10 20 -10 11 0 20 5 20 10 0 6 -9 10 -20 10
-11 0 -20 -4 -20 -10z"/>
<path d="M14948 24813 c34 -2 88 -2 120 0 31 2 3 3 -63 3 -66 0 -92 -1 -57 -3z"/>
<path d="M35483 24813 c11 -10 236 -13 242 -2 4 5 -45 9 -121 9 -70 0 -124 -3
-121 -7z"/>
<path d="M14098 24803 c7 -3 16 -2 19 1 4 3 -2 6 -13 5 -11 0 -14 -3 -6 -6z"/>
<path d="M15183 24803 c9 -2 25 -2 35 0 9 3 1 5 -18 5 -19 0 -27 -2 -17 -5z"/>
<path d="M36488 24803 c6 -2 18 -2 25 0 6 3 1 5 -13 5 -14 0 -19 -2 -12 -5z"/>
<path d="M36536 24802 c-3 -5 11 -12 32 -16 54 -9 74 -7 67 4 -4 6 -18 10 -33
9 -15 -1 -34 1 -43 5 -10 4 -20 3 -23 -2z"/>
<path d="M14048 24793 c7 -3 16 -2 19 1 4 3 -2 6 -13 5 -11 0 -14 -3 -6 -6z"/>
<path d="M13880 24780 c0 -5 14 -10 30 -10 17 0 30 5 30 10 0 6 -13 10 -30 10
-16 0 -30 -4 -30 -10z"/>
<path d="M13988 24783 c6 -2 18 -2 25 0 6 3 1 5 -13 5 -14 0 -19 -2 -12 -5z"/>
<path d="M36660 24780 c0 -5 18 -10 39 -10 22 0 43 5 46 10 4 6 -12 10 -39 10
-25 0 -46 -4 -46 -10z"/>
<path d="M13590 24771 c41 -4 107 -4 145 0 51 4 30 6 -75 6 -111 0 -127 -1
-70 -6z"/>
<path d="M36785 24770 c8 -13 345 -12 345 1 0 5 -76 9 -176 9 -118 0 -173 -3
-169 -10z"/>
<path d="M37185 24771 c-12 -11 -3 -22 18 -21 12 1 29 2 37 1 13 -1 13 -2 0
-12 -11 -8 -7 -9 19 -5 18 3 37 6 42 6 17 0 9 30 -8 31 -78 4 -104 4 -108 0z"/>
<path d="M13315 24760 c-12 -5 1 -6 35 -3 30 3 57 7 59 9 9 8 -75 2 -94 -6z"/>
<path d="M36177 24063 c3 -7 6 -13 8 -13 2 0 5 6 8 13 3 8 -1 14 -8 14 -7 0
-11 -6 -8 -14z"/>
<path d="M35786 24048 c3 -5 10 -6 15 -3 13 9 11 12 -6 12 -8 0 -12 -4 -9 -9z"/>
<path d="M35881 24034 c0 -11 3 -14 6 -6 3 7 2 16 -1 19 -3 4 -6 -2 -5 -13z"/>
<path d="M34533 23995 c-3 -9 -3 -18 -1 -21 3 -3 8 4 11 16 6 23 -1 27 -10 5z"/>
<path d="M34621 23405 c0 -26 33 -108 41 -100 5 5 -6 40 -30 95 -9 21 -11 22
-11 5z"/>
<path d="M15090 23281 c0 -6 4 -13 10 -16 6 -3 7 1 4 9 -7 18 -14 21 -14 7z"/>
<path d="M34662 23280 c0 -8 4 -26 8 -40 6 -20 8 -21 8 -5 0 11 -3 29 -8 40
-5 12 -8 14 -8 5z"/>
<path d="M15920 23175 c0 -22 4 -34 10 -30 6 3 10 17 10 30 0 13 -4 27 -10 30
-6 4 -10 -8 -10 -30z"/>
<path d="M34674 23184 c-4 -14 -2 -30 5 -37 8 -8 11 -1 11 26 0 43 -7 48 -16
11z"/>
<path d="M15910 23016 c0 -47 5 -88 10 -91 6 -4 10 27 10 84 0 54 -4 91 -10
91 -6 0 -10 -35 -10 -84z"/>
<path d="M34687 23083 c-9 -9 -7 -92 3 -123 6 -17 8 -2 9 53 1 77 0 83 -12 70z"/>
<path d="M15727 22872 c-24 -5 -22 -8 26 -52 23 -22 36 -40 30 -40 -7 0 -13
-4 -13 -10 0 -5 14 -10 30 -10 40 0 38 12 -10 53 -22 19 -40 36 -40 38 0 7 81
10 99 4 10 -3 28 -28 41 -55 13 -27 27 -47 32 -44 5 3 8 32 7 64 -2 61 -18 74
-20 17 l0 -32 -16 33 c-9 17 -24 32 -32 33 -98 3 -120 4 -134 1z"/>
<path d="M34721 22833 l-20 -38 -1 33 c0 20 -4 31 -10 27 -5 -3 -10 -26 -10
-51 0 -24 5 -44 10 -44 6 0 10 7 10 15 0 8 4 15 8 15 5 0 16 16 25 35 16 35
17 35 79 35 l63 0 -47 -44 c-27 -24 -48 -46 -48 -50 0 -3 15 -6 33 -6 26 1 29
2 14 11 -15 9 -12 15 30 54 l48 44 -82 1 -83 0 -19 -37z"/>
<path d="M33615 22319 c-4 -6 -4 -13 -1 -16 3 -4 6 -1 6 6 0 7 5 9 12 5 7 -4
8 -3 4 4 -9 15 -13 15 -21 1z"/>
<path d="M16995 22280 c-3 -5 -1 -10 4 -10 6 0 11 5 11 10 0 6 -2 10 -4 10 -3
0 -8 -4 -11 -10z"/>
<path d="M33650 22255 c0 -5 5 -17 10 -25 5 -8 10 -10 10 -5 0 6 -5 17 -10 25
-5 8 -10 11 -10 5z"/>
<path d="M33764 22194 c-18 -14 -18 -15 4 -4 12 6 22 13 22 15 0 8 -5 6 -26
-11z"/>
<path d="M33677 22170 c6 -24 10 -24 43 -5 l25 15 -27 -6 c-18 -4 -28 -2 -28
5 0 6 -4 11 -9 11 -5 0 -7 -9 -4 -20z"/>
<path d="M33785 22100 c-3 -5 -1 -10 4 -10 6 0 11 5 11 10 0 6 -2 10 -4 10 -3
0 -8 -4 -11 -10z"/>
<path d="M33800 22074 c0 -16 44 -72 76 -96 25 -19 24 -16 -7 18 -20 21 -43
50 -53 64 -9 13 -16 20 -16 14z"/>
<path d="M18141 21494 c0 -11 3 -14 6 -6 3 7 2 16 -1 19 -3 4 -6 -2 -5 -13z"/>
<path d="M17635 21450 c-4 -6 5 -10 19 -10 14 0 26 5 26 10 0 6 -9 10 -19 10
-11 0 -23 -4 -26 -10z"/>
<path d="M18132 21440 c0 -14 2 -19 5 -12 2 6 2 18 0 25 -3 6 -5 1 -5 -13z"/>
<path d="M17715 21440 c4 -6 11 -8 16 -5 14 9 11 15 -7 15 -8 0 -12 -5 -9 -10z"/>
<path d="M18006 21435 c4 -8 -2 -27 -11 -41 -9 -15 -12 -23 -6 -20 16 10 41
62 34 70 -12 12 -22 6 -17 -9z"/>
<path d="M17530 21422 c0 -4 10 -13 23 -21 22 -14 22 -14 3 8 -20 22 -26 25
-26 13z"/>
<path d="M18122 21380 c0 -14 2 -19 5 -12 2 6 2 18 0 25 -3 6 -5 1 -5 -13z"/>
<path d="M17988 21353 c7 -3 16 -2 19 1 4 3 -2 6 -13 5 -11 0 -14 -3 -6 -6z"/>
<path d="M18053 21343 c9 -2 25 -2 35 0 9 3 1 5 -18 5 -19 0 -27 -2 -17 -5z"/>
<path d="M19063 21053 c9 -2 25 -2 35 0 9 3 1 5 -18 5 -19 0 -27 -2 -17 -5z"/>
<path d="M18978 21043 c7 -3 16 -2 19 1 4 3 -2 6 -13 5 -11 0 -14 -3 -6 -6z"/>
<path d="M23690 38626 l0 -336 224 0 c196 0 232 2 289 20 205 63 311 255 237
428 -30 70 -129 162 -207 193 -54 22 -74 24 -300 27 l-243 3 0 -335z"/>
<path d="M25592 35663 c-52 -25 -77 -69 -77 -133 0 -70 28 -112 90 -135 61
-24 109 -13 156 33 49 49 58 103 30 166 -34 78 -120 108 -199 69z"/>
<path d="M17799 12061 l-645 -1296 649 -3 c357 -1 938 -1 1291 0 l643 3 -296
595 c-163 327 -447 899 -631 1270 -184 371 -341 687 -350 701 -15 26 -25 6
-661 -1270z"/>
<path d="M28937 12060 c-356 -715 -647 -1302 -647 -1305 0 -3 583 -5 1295 -5
712 0 1295 4 1295 8 0 10 -1279 2584 -1289 2595 -4 4 -299 -578 -654 -1293z"/>
<path d="M36993 11625 c0 -8 4 -12 9 -9 5 3 6 10 3 15 -9 13 -12 11 -12 -6z"/>
<path d="M37317 11332 c12 -11 19 -23 15 -27 -4 -5 -1 -5 6 -1 17 10 16 11
-15 30 l-28 17 22 -19z"/>
<path d="M11850 13340 l0 -1141 788 4 c768 3 789 4 884 25 543 123 927 441
1050 867 20 70 23 101 22 240 -1 143 -3 169 -27 248 -131 429 -516 746 -1055
869 -95 21 -116 22 -879 25 l-783 4 0 -1141z"/>
<path d="M31988 7455 c-277 -53 -504 -217 -622 -452 -95 -189 -91 -442 10
-634 157 -298 523 -482 872 -440 304 37 558 207 682 456 141 284 73 623 -169
847 -110 101 -252 177 -402 213 -93 23 -277 28 -371 10z"/>
<path d="M24550 7055 l0 -385 233 0 c254 0 305 7 407 58 67 33 150 114 179
175 84 173 7 377 -178 476 -101 54 -150 61 -408 61 l-233 0 0 -385z"/>
<path d="M33885 7438 c-3 -7 -4 -184 -3 -393 l3 -380 250 1 c234 0 254 1 315
23 303 106 394 408 187 615 -56 56 -103 84 -197 119 -48 18 -85 21 -302 25
-202 3 -249 2 -253 -10z"/>
</g>
</svg>
